<svg xmlns="http://www.w3.org/2000/svg" xmlns:xlink="http://www.w3.org/1999/xlink" contentStyleType="text/css" height="1517px" preserveAspectRatio="none" style="width:675px;height:1517px;background:#FFFFFF;" version="1.1" viewBox="0 0 675 1517" width="675px" zoomAndPan="magnify"><defs/><g><rect fill="none" height="599.6016" style="stroke:#000000;stroke-width:1.5;" width="467.1484" x="200.9873" y="732.9531"/><rect fill="none" height="101.3984" style="stroke:#000000;stroke-width:1.5;" width="313.5269" x="210.9873" y="1182.0234"/><line style="stroke:#181818;stroke-width:0.5;stroke-dasharray:5.0,5.0;" x1="30" x2="30" y1="81.2969" y2="1436.9531"/><line style="stroke:#181818;stroke-width:0.5;stroke-dasharray:5.0,5.0;" x1="237.9873" x2="237.9873" y1="81.2969" y2="1436.9531"/><line style="stroke:#181818;stroke-width:0.5;stroke-dasharray:5.0,5.0;" x1="625.3535" x2="625.3535" y1="81.2969" y2="1436.9531"/><text fill="#000000" font-family="sans-serif" font-size="14" lengthAdjust="spacing" textLength="44.6455" x="5" y="77.9951">Speler</text><ellipse cx="30.3228" cy="13.5" fill="#E2E2F0" rx="8" ry="8" style="stroke:#181818;stroke-width:0.5;"/><path d="M30.3228,21.5 L30.3228,48.5 M17.3228,29.5 L43.3228,29.5 M30.3228,48.5 L17.3228,63.5 M30.3228,48.5 L43.3228,63.5 " fill="none" style="stroke:#181818;stroke-width:0.5;"/><text fill="#000000" font-family="sans-serif" font-size="14" lengthAdjust="spacing" textLength="44.6455" x="5" y="1448.9482">Speler</text><ellipse cx="30.3228" cy="1460.75" fill="#E2E2F0" rx="8" ry="8" style="stroke:#181818;stroke-width:0.5;"/><path d="M30.3228,1468.75 L30.3228,1495.75 M17.3228,1476.75 L43.3228,1476.75 M30.3228,1495.75 L17.3228,1510.75 M30.3228,1495.75 L43.3228,1510.75 " fill="none" style="stroke:#181818;stroke-width:0.5;"/><text fill="#000000" font-family="sans-serif" font-size="14" lengthAdjust="spacing" textLength="28.2256" x="220.9873" y="77.9951">GVL</text><ellipse cx="238.1001" cy="49" fill="#E2E2F0" rx="12" ry="12" style="stroke:#181818;stroke-width:0.5;"/><line style="stroke:#181818;stroke-width:0.5;" x1="226.1001" x2="250.1001" y1="63" y2="63"/><text fill="#000000" font-family="sans-serif" font-size="14" lengthAdjust="spacing" textLength="28.2256" x="220.9873" y="1448.9482">GVL</text><ellipse cx="238.1001" cy="1468.25" fill="#E2E2F0" rx="12" ry="12" style="stroke:#181818;stroke-width:0.5;"/><line style="stroke:#181818;stroke-width:0.5;" x1="226.1001" x2="250.1001" y1="1482.25" y2="1482.25"/><text fill="#000000" font-family="sans-serif" font-size="14" lengthAdjust="spacing" textLength="58.7822" x="593.3535" y="77.9951">Functies</text><ellipse cx="625.7446" cy="49" fill="#E2E2F0" rx="12" ry="12" style="stroke:#181818;stroke-width:0.5;"/><line style="stroke:#181818;stroke-width:0.5;" x1="613.7446" x2="637.7446" y1="63" y2="63"/><text fill="#000000" font-family="sans-serif" font-size="14" lengthAdjust="spacing" textLength="58.7822" x="593.3535" y="1448.9482">Functies</text><ellipse cx="625.7446" cy="1468.25" fill="#E2E2F0" rx="12" ry="12" style="stroke:#181818;stroke-width:0.5;"/><line style="stroke:#181818;stroke-width:0.5;" x1="613.7446" x2="637.7446" y1="1482.25" y2="1482.25"/><polygon fill="#181818" points="226.1001,108.4297,236.1001,112.4297,226.1001,116.4297,230.1001,112.4297" style="stroke:#181818;stroke-width:1.0;"/><line style="stroke:#181818;stroke-width:1.0;" x1="30.3228" x2="232.1001" y1="112.4297" y2="112.4297"/><text fill="#000000" font-family="sans-serif" font-size="13" lengthAdjust="spacing" textLength="178.7563" x="37.3228" y="107.3638">Start het spel (Begin_Knop)</text><polygon fill="#181818" points="613.7446,137.5625,623.7446,141.5625,613.7446,145.5625,617.7446,141.5625" style="stroke:#181818;stroke-width:1.0;"/><line style="stroke:#181818;stroke-width:1.0;" x1="238.1001" x2="619.7446" y1="141.5625" y2="141.5625"/><text fill="#000000" font-family="sans-serif" font-size="13" lengthAdjust="spacing" textLength="171.2788" x="245.1001" y="136.4966">Verhoog randomCounter()</text><polygon fill="#181818" points="249.1001,166.6953,239.1001,170.6953,249.1001,174.6953,245.1001,170.6953" style="stroke:#181818;stroke-width:1.0;"/><line style="stroke:#181818;stroke-width:1.0;" x1="243.1001" x2="624.7446" y1="170.6953" y2="170.6953"/><text fill="#000000" font-family="sans-serif" font-size="13" lengthAdjust="spacing" textLength="161.1353" x="255.1001" y="165.6294">Verhoog randomCounter</text><polygon fill="#181818" points="613.7446,195.8281,623.7446,199.8281,613.7446,203.8281,617.7446,199.8281" style="stroke:#181818;stroke-width:1.0;"/><line style="stroke:#181818;stroke-width:1.0;" x1="238.1001" x2="619.7446" y1="199.8281" y2="199.8281"/><text fill="#000000" font-family="sans-serif" font-size="13" lengthAdjust="spacing" textLength="225.6021" x="245.1001" y="194.7622">GenereerPseudoWillekeurigGetal()</text><polygon fill="#181818" points="249.1001,224.9609,239.1001,228.9609,249.1001,232.9609,245.1001,228.9609" style="stroke:#181818;stroke-width:1.0;"/><line style="stroke:#181818;stroke-width:1.0;" x1="243.1001" x2="624.7446" y1="228.9609" y2="228.9609"/><text fill="#000000" font-family="sans-serif" font-size="13" lengthAdjust="spacing" textLength="306.5601" x="255.1001" y="223.895">Genereer pseudo-willekeurig getal (tempRand)</text><polygon fill="#181818" points="613.7446,254.0938,623.7446,258.0938,613.7446,262.0938,617.7446,258.0938" style="stroke:#181818;stroke-width:1.0;"/><line style="stroke:#181818;stroke-width:1.0;" x1="238.1001" x2="619.7446" y1="258.0938" y2="258.0938"/><text fill="#000000" font-family="sans-serif" font-size="13" lengthAdjust="spacing" textLength="96.313" x="245.1001" y="253.0278">BepaalSpeler()</text><polygon fill="#181818" points="249.1001,283.2266,239.1001,287.2266,249.1001,291.2266,245.1001,287.2266" style="stroke:#181818;stroke-width:1.0;"/><line style="stroke:#181818;stroke-width:1.0;" x1="243.1001" x2="624.7446" y1="287.2266" y2="287.2266"/><text fill="#000000" font-family="sans-serif" font-size="13" lengthAdjust="spacing" textLength="215.2744" x="255.1001" y="282.1606">Zet Player_1 / Player_2 aan of uit</text><line style="stroke:#181818;stroke-width:1.0;" x1="238.1001" x2="280.1001" y1="316.3594" y2="316.3594"/><line style="stroke:#181818;stroke-width:1.0;" x1="280.1001" x2="280.1001" y1="316.3594" y2="329.3594"/><line style="stroke:#181818;stroke-width:1.0;" x1="239.1001" x2="280.1001" y1="329.3594" y2="329.3594"/><polygon fill="#181818" points="249.1001,325.3594,239.1001,329.3594,249.1001,333.3594,245.1001,329.3594" style="stroke:#181818;stroke-width:1.0;"/><text fill="#000000" font-family="sans-serif" font-size="13" lengthAdjust="spacing" textLength="262.7803" x="245.1001" y="311.2935">Zet Player_1_Lamp / Player_2_Lamp aan</text><line style="stroke:#181818;stroke-width:1.0;" x1="238.1001" x2="280.1001" y1="358.4922" y2="358.4922"/><line style="stroke:#181818;stroke-width:1.0;" x1="280.1001" x2="280.1001" y1="358.4922" y2="371.4922"/><line style="stroke:#181818;stroke-width:1.0;" x1="239.1001" x2="280.1001" y1="371.4922" y2="371.4922"/><polygon fill="#181818" points="249.1001,367.4922,239.1001,371.4922,249.1001,375.4922,245.1001,371.4922" style="stroke:#181818;stroke-width:1.0;"/><text fill="#000000" font-family="sans-serif" font-size="13" lengthAdjust="spacing" textLength="155.5112" x="245.1001" y="353.4263">Zet game_status naar 1</text><polygon fill="#181818" points="226.1001,396.625,236.1001,400.625,226.1001,404.625,230.1001,400.625" style="stroke:#181818;stroke-width:1.0;"/><line style="stroke:#181818;stroke-width:1.0;" x1="30.3228" x2="232.1001" y1="400.625" y2="400.625"/><text fill="#000000" font-family="sans-serif" font-size="13" lengthAdjust="spacing" textLength="163.3125" x="37.3228" y="395.5591">Zet figuur (Rechthoek_X)</text><polygon fill="#181818" points="613.7446,425.7578,623.7446,429.7578,613.7446,433.7578,617.7446,429.7578" style="stroke:#181818;stroke-width:1.0;"/><line style="stroke:#181818;stroke-width:1.0;" x1="238.1001" x2="619.7446" y1="429.7578" y2="429.7578"/><text fill="#000000" font-family="sans-serif" font-size="13" lengthAdjust="spacing" textLength="120.2183" x="245.1001" y="424.6919">ControleerSpeler()</text><polygon fill="#181818" points="249.1001,454.8906,239.1001,458.8906,249.1001,462.8906,245.1001,458.8906" style="stroke:#181818;stroke-width:1.0;"/><line style="stroke:#181818;stroke-width:1.0;" x1="243.1001" x2="624.7446" y1="458.8906" y2="458.8906"/><text fill="#000000" font-family="sans-serif" font-size="13" lengthAdjust="spacing" textLength="326.3647" x="255.1001" y="453.8247">Controleer wie aan de beurt is (Player_1/Player_2)</text><polygon fill="#181818" points="613.7446,484.0234,623.7446,488.0234,613.7446,492.0234,617.7446,488.0234" style="stroke:#181818;stroke-width:1.0;"/><line style="stroke:#181818;stroke-width:1.0;" x1="238.1001" x2="619.7446" y1="488.0234" y2="488.0234"/><text fill="#000000" font-family="sans-serif" font-size="13" lengthAdjust="spacing" textLength="90.562" x="245.1001" y="482.9575">PlaatsFiguur()</text><polygon fill="#181818" points="249.1001,513.1563,239.1001,517.1563,249.1001,521.1563,245.1001,517.1563" style="stroke:#181818;stroke-width:1.0;"/><line style="stroke:#181818;stroke-width:1.0;" x1="243.1001" x2="624.7446" y1="517.1563" y2="517.1563"/><text fill="#000000" font-family="sans-serif" font-size="13" lengthAdjust="spacing" textLength="214.7158" x="255.1001" y="512.0903">Plaats Driehoek / Rondje in vakje</text><line style="stroke:#181818;stroke-width:1.0;" x1="238.1001" x2="280.1001" y1="546.2891" y2="546.2891"/><line style="stroke:#181818;stroke-width:1.0;" x1="280.1001" x2="280.1001" y1="546.2891" y2="559.2891"/><line style="stroke:#181818;stroke-width:1.0;" x1="239.1001" x2="280.1001" y1="559.2891" y2="559.2891"/><polygon fill="#181818" points="249.1001,555.2891,239.1001,559.2891,249.1001,563.2891,245.1001,559.2891" style="stroke:#181818;stroke-width:1.0;"/><text fill="#000000" font-family="sans-serif" font-size="13" lengthAdjust="spacing" textLength="150.4077" x="245.1001" y="541.2231">Zet zetGedaan = TRUE</text><polygon fill="#181818" points="613.7446,584.4219,623.7446,588.4219,613.7446,592.4219,617.7446,588.4219" style="stroke:#181818;stroke-width:1.0;"/><line style="stroke:#181818;stroke-width:1.0;" x1="238.1001" x2="619.7446" y1="588.4219" y2="588.4219"/><text fill="#000000" font-family="sans-serif" font-size="13" lengthAdjust="spacing" textLength="87.3628" x="245.1001" y="583.356">WisselBeurt()</text><polygon fill="#181818" points="249.1001,613.5547,239.1001,617.5547,249.1001,621.5547,245.1001,617.5547" style="stroke:#181818;stroke-width:1.0;"/><line style="stroke:#181818;stroke-width:1.0;" x1="243.1001" x2="624.7446" y1="617.5547" y2="617.5547"/><text fill="#000000" font-family="sans-serif" font-size="13" lengthAdjust="spacing" textLength="180.7051" x="255.1001" y="612.4888">Wissel Player_1 en Player_2</text><line style="stroke:#181818;stroke-width:1.0;" x1="238.1001" x2="280.1001" y1="646.6875" y2="646.6875"/><line style="stroke:#181818;stroke-width:1.0;" x1="280.1001" x2="280.1001" y1="646.6875" y2="659.6875"/><line style="stroke:#181818;stroke-width:1.0;" x1="239.1001" x2="280.1001" y1="659.6875" y2="659.6875"/><polygon fill="#181818" points="249.1001,655.6875,239.1001,659.6875,249.1001,663.6875,245.1001,659.6875" style="stroke:#181818;stroke-width:1.0;"/><text fill="#000000" font-family="sans-serif" font-size="13" lengthAdjust="spacing" textLength="155.5112" x="245.1001" y="641.6216">Zet game_status naar 2</text><polygon fill="#181818" points="613.7446,684.8203,623.7446,688.8203,613.7446,692.8203,617.7446,688.8203" style="stroke:#181818;stroke-width:1.0;"/><line style="stroke:#181818;stroke-width:1.0;" x1="238.1001" x2="619.7446" y1="688.8203" y2="688.8203"/><text fill="#000000" font-family="sans-serif" font-size="13" lengthAdjust="spacing" textLength="132.9834" x="245.1001" y="683.7544">ControleerWinnaar()</text><polygon fill="#181818" points="249.1001,713.9531,239.1001,717.9531,249.1001,721.9531,245.1001,717.9531" style="stroke:#181818;stroke-width:1.0;"/><line style="stroke:#181818;stroke-width:1.0;" x1="243.1001" x2="624.7446" y1="717.9531" y2="717.9531"/><text fill="#000000" font-family="sans-serif" font-size="13" lengthAdjust="spacing" textLength="363.6445" x="255.1001" y="712.8872">Controleer of er een winnaar is (Driehoek/Rondje lijnen)</text><path d="M200.9873,732.9531 L265.4302,732.9531 L265.4302,740.0859 L255.4302,750.0859 L200.9873,750.0859 L200.9873,732.9531 " fill="#EEEEEE" style="stroke:#000000;stroke-width:1.5;"/><rect fill="none" height="599.6016" style="stroke:#000000;stroke-width:1.5;" width="467.1484" x="200.9873" y="732.9531"/><text fill="#000000" font-family="sans-serif" font-size="13" font-weight="bold" lengthAdjust="spacing" textLength="19.4429" x="215.9873" y="746.02">alt</text><text fill="#000000" font-family="sans-serif" font-size="11" font-weight="bold" lengthAdjust="spacing" textLength="92.3022" x="280.4302" y="745.1636">[Speler 1 wint]</text><line style="stroke:#181818;stroke-width:1.0;" x1="238.1001" x2="280.1001" y1="771.2188" y2="771.2188"/><line style="stroke:#181818;stroke-width:1.0;" x1="280.1001" x2="280.1001" y1="771.2188" y2="784.2188"/><line style="stroke:#181818;stroke-width:1.0;" x1="239.1001" x2="280.1001" y1="784.2188" y2="784.2188"/><polygon fill="#181818" points="249.1001,780.2188,239.1001,784.2188,249.1001,788.2188,245.1001,784.2188" style="stroke:#181818;stroke-width:1.0;"/><text fill="#000000" font-family="sans-serif" font-size="13" lengthAdjust="spacing" textLength="105.5615" x="245.1001" y="766.1528">Zet winnaar = 1</text><line style="stroke:#181818;stroke-width:1.0;" x1="238.1001" x2="280.1001" y1="813.3516" y2="813.3516"/><line style="stroke:#181818;stroke-width:1.0;" x1="280.1001" x2="280.1001" y1="813.3516" y2="826.3516"/><line style="stroke:#181818;stroke-width:1.0;" x1="239.1001" x2="280.1001" y1="826.3516" y2="826.3516"/><polygon fill="#181818" points="249.1001,822.3516,239.1001,826.3516,249.1001,830.3516,245.1001,826.3516" style="stroke:#181818;stroke-width:1.0;"/><text fill="#000000" font-family="sans-serif" font-size="13" lengthAdjust="spacing" textLength="168.8604" x="245.1001" y="808.2856">Zet Player_1_Lamp_G aan</text><line style="stroke:#181818;stroke-width:1.0;" x1="238.1001" x2="280.1001" y1="855.4844" y2="855.4844"/><line style="stroke:#181818;stroke-width:1.0;" x1="280.1001" x2="280.1001" y1="855.4844" y2="868.4844"/><line style="stroke:#181818;stroke-width:1.0;" x1="239.1001" x2="280.1001" y1="868.4844" y2="868.4844"/><polygon fill="#181818" points="249.1001,864.4844,239.1001,868.4844,249.1001,872.4844,245.1001,868.4844" style="stroke:#181818;stroke-width:1.0;"/><text fill="#000000" font-family="sans-serif" font-size="13" lengthAdjust="spacing" textLength="145.063" x="245.1001" y="850.4185">Zet Player_2_Lamp uit</text><line style="stroke:#181818;stroke-width:1.0;" x1="238.1001" x2="280.1001" y1="897.6172" y2="897.6172"/><line style="stroke:#181818;stroke-width:1.0;" x1="280.1001" x2="280.1001" y1="897.6172" y2="910.6172"/><line style="stroke:#181818;stroke-width:1.0;" x1="239.1001" x2="280.1001" y1="910.6172" y2="910.6172"/><polygon fill="#181818" points="249.1001,906.6172,239.1001,910.6172,249.1001,914.6172,245.1001,910.6172" style="stroke:#181818;stroke-width:1.0;"/><text fill="#000000" font-family="sans-serif" font-size="13" lengthAdjust="spacing" textLength="155.5112" x="245.1001" y="892.5513">Zet game_status naar 3</text><line style="stroke:#000000;stroke-width:1.0;stroke-dasharray:2.0,2.0;" x1="200.9873" x2="668.1357" y1="919.6172" y2="919.6172"/><text fill="#000000" font-family="sans-serif" font-size="11" font-weight="bold" lengthAdjust="spacing" textLength="92.3022" x="205.9873" y="929.8276">[Speler 2 wint]</text><line style="stroke:#181818;stroke-width:1.0;" x1="238.1001" x2="280.1001" y1="954.5547" y2="954.5547"/><line style="stroke:#181818;stroke-width:1.0;" x1="280.1001" x2="280.1001" y1="954.5547" y2="967.5547"/><line style="stroke:#181818;stroke-width:1.0;" x1="239.1001" x2="280.1001" y1="967.5547" y2="967.5547"/><polygon fill="#181818" points="249.1001,963.5547,239.1001,967.5547,249.1001,971.5547,245.1001,967.5547" style="stroke:#181818;stroke-width:1.0;"/><text fill="#000000" font-family="sans-serif" font-size="13" lengthAdjust="spacing" textLength="105.5615" x="245.1001" y="949.4888">Zet winnaar = 2</text><line style="stroke:#181818;stroke-width:1.0;" x1="238.1001" x2="280.1001" y1="996.6875" y2="996.6875"/><line style="stroke:#181818;stroke-width:1.0;" x1="280.1001" x2="280.1001" y1="996.6875" y2="1009.6875"/><line style="stroke:#181818;stroke-width:1.0;" x1="239.1001" x2="280.1001" y1="1009.6875" y2="1009.6875"/><polygon fill="#181818" points="249.1001,1005.6875,239.1001,1009.6875,249.1001,1013.6875,245.1001,1009.6875" style="stroke:#181818;stroke-width:1.0;"/><text fill="#000000" font-family="sans-serif" font-size="13" lengthAdjust="spacing" textLength="168.8604" x="245.1001" y="991.6216">Zet Player_2_Lamp_G aan</text><line style="stroke:#181818;stroke-width:1.0;" x1="238.1001" x2="280.1001" y1="1038.8203" y2="1038.8203"/><line style="stroke:#181818;stroke-width:1.0;" x1="280.1001" x2="280.1001" y1="1038.8203" y2="1051.8203"/><line style="stroke:#181818;stroke-width:1.0;" x1="239.1001" x2="280.1001" y1="1051.8203" y2="1051.8203"/><polygon fill="#181818" points="249.1001,1047.8203,239.1001,1051.8203,249.1001,1055.8203,245.1001,1051.8203" style="stroke:#181818;stroke-width:1.0;"/><text fill="#000000" font-family="sans-serif" font-size="13" lengthAdjust="spacing" textLength="145.063" x="245.1001" y="1033.7544">Zet Player_1_Lamp uit</text><line style="stroke:#181818;stroke-width:1.0;" x1="238.1001" x2="280.1001" y1="1080.9531" y2="1080.9531"/><line style="stroke:#181818;stroke-width:1.0;" x1="280.1001" x2="280.1001" y1="1080.9531" y2="1093.9531"/><line style="stroke:#181818;stroke-width:1.0;" x1="239.1001" x2="280.1001" y1="1093.9531" y2="1093.9531"/><polygon fill="#181818" points="249.1001,1089.9531,239.1001,1093.9531,249.1001,1097.9531,245.1001,1093.9531" style="stroke:#181818;stroke-width:1.0;"/><text fill="#000000" font-family="sans-serif" font-size="13" lengthAdjust="spacing" textLength="155.5112" x="245.1001" y="1075.8872">Zet game_status naar 3</text><line style="stroke:#000000;stroke-width:1.0;stroke-dasharray:2.0,2.0;" x1="200.9873" x2="668.1357" y1="1102.9531" y2="1102.9531"/><text fill="#000000" font-family="sans-serif" font-size="11" font-weight="bold" lengthAdjust="spacing" textLength="202.6299" x="205.9873" y="1113.1636">[Geen winnaar, check gelijkspel]</text><polygon fill="#181818" points="613.7446,1133.8906,623.7446,1137.8906,613.7446,1141.8906,617.7446,1137.8906" style="stroke:#181818;stroke-width:1.0;"/><line style="stroke:#181818;stroke-width:1.0;" x1="238.1001" x2="619.7446" y1="1137.8906" y2="1137.8906"/><text fill="#000000" font-family="sans-serif" font-size="13" lengthAdjust="spacing" textLength="141.832" x="245.1001" y="1132.8247">ControleerGelijkspel()</text><polygon fill="#181818" points="249.1001,1163.0234,239.1001,1167.0234,249.1001,1171.0234,245.1001,1167.0234" style="stroke:#181818;stroke-width:1.0;"/><line style="stroke:#181818;stroke-width:1.0;" x1="243.1001" x2="624.7446" y1="1167.0234" y2="1167.0234"/><text fill="#000000" font-family="sans-serif" font-size="13" lengthAdjust="spacing" textLength="190.6455" x="255.1001" y="1161.9575">Controleer of het gelijkspel is</text><path d="M210.9873,1182.0234 L275.4302,1182.0234 L275.4302,1189.1563 L265.4302,1199.1563 L210.9873,1199.1563 L210.9873,1182.0234 " fill="#EEEEEE" style="stroke:#000000;stroke-width:1.5;"/><rect fill="none" height="101.3984" style="stroke:#000000;stroke-width:1.5;" width="313.5269" x="210.9873" y="1182.0234"/><text fill="#000000" font-family="sans-serif" font-size="13" font-weight="bold" lengthAdjust="spacing" textLength="19.4429" x="225.9873" y="1195.0903">alt</text><text fill="#000000" font-family="sans-serif" font-size="11" font-weight="bold" lengthAdjust="spacing" textLength="70.8232" x="290.4302" y="1194.2339">[Gelijkspel]</text><line style="stroke:#181818;stroke-width:1.0;" x1="238.1001" x2="280.1001" y1="1220.2891" y2="1220.2891"/><line style="stroke:#181818;stroke-width:1.0;" x1="280.1001" x2="280.1001" y1="1220.2891" y2="1233.2891"/><line style="stroke:#181818;stroke-width:1.0;" x1="239.1001" x2="280.1001" y1="1233.2891" y2="1233.2891"/><polygon fill="#181818" points="249.1001,1229.2891,239.1001,1233.2891,249.1001,1237.2891,245.1001,1233.2891" style="stroke:#181818;stroke-width:1.0;"/><text fill="#000000" font-family="sans-serif" font-size="13" lengthAdjust="spacing" textLength="143.0635" x="245.1001" y="1215.2231">Zet Gelijkspel = TRUE</text><line style="stroke:#181818;stroke-width:1.0;" x1="238.1001" x2="280.1001" y1="1262.4219" y2="1262.4219"/><line style="stroke:#181818;stroke-width:1.0;" x1="280.1001" x2="280.1001" y1="1262.4219" y2="1275.4219"/><line style="stroke:#181818;stroke-width:1.0;" x1="239.1001" x2="280.1001" y1="1275.4219" y2="1275.4219"/><polygon fill="#181818" points="249.1001,1271.4219,239.1001,1275.4219,249.1001,1279.4219,245.1001,1275.4219" style="stroke:#181818;stroke-width:1.0;"/><text fill="#000000" font-family="sans-serif" font-size="13" lengthAdjust="spacing" textLength="267.4141" x="245.1001" y="1257.356">Zet Player_1_Lamp en Player_2_Lamp uit</text><line style="stroke:#181818;stroke-width:1.0;" x1="238.1001" x2="280.1001" y1="1311.5547" y2="1311.5547"/><line style="stroke:#181818;stroke-width:1.0;" x1="280.1001" x2="280.1001" y1="1311.5547" y2="1324.5547"/><line style="stroke:#181818;stroke-width:1.0;" x1="239.1001" x2="280.1001" y1="1324.5547" y2="1324.5547"/><polygon fill="#181818" points="249.1001,1320.5547,239.1001,1324.5547,249.1001,1328.5547,245.1001,1324.5547" style="stroke:#181818;stroke-width:1.0;"/><text fill="#000000" font-family="sans-serif" font-size="13" lengthAdjust="spacing" textLength="304.7446" x="245.1001" y="1306.4888">Zet game_status naar 1 (terug naar beurtfase)</text><polygon fill="#181818" points="226.1001,1356.6875,236.1001,1360.6875,226.1001,1364.6875,230.1001,1360.6875" style="stroke:#181818;stroke-width:1.0;"/><line style="stroke:#181818;stroke-width:1.0;" x1="30.3228" x2="232.1001" y1="1360.6875" y2="1360.6875"/><text fill="#000000" font-family="sans-serif" font-size="13" lengthAdjust="spacing" textLength="183.7773" x="37.3228" y="1355.6216">Reset het spel (Reset_Knop)</text><polygon fill="#181818" points="613.7446,1385.8203,623.7446,1389.8203,613.7446,1393.8203,617.7446,1389.8203" style="stroke:#181818;stroke-width:1.0;"/><line style="stroke:#181818;stroke-width:1.0;" x1="238.1001" x2="619.7446" y1="1389.8203" y2="1389.8203"/><text fill="#000000" font-family="sans-serif" font-size="13" lengthAdjust="spacing" textLength="75.1563" x="245.1001" y="1384.7544">ResetSpel()</text><polygon fill="#181818" points="249.1001,1414.9531,239.1001,1418.9531,249.1001,1422.9531,245.1001,1418.9531" style="stroke:#181818;stroke-width:1.0;"/><line style="stroke:#181818;stroke-width:1.0;" x1="243.1001" x2="624.7446" y1="1418.9531" y2="1418.9531"/><text fill="#000000" font-family="sans-serif" font-size="13" lengthAdjust="spacing" textLength="251.1133" x="255.1001" y="1413.8872">Reset alle variabelen naar beginstatus</text><!--SRC=[dLN1Rjim3BthAtXqW1M1qzk0xf1szQ4z5CxM3BiOgiquIXJ9aEG5tTUFigF4WTKqM0w63Rr7FZuo52-TDh1eKA9Xg9nmxv2zFeVNnrQLJg1bh8V0pJT_35zXuRXni4O7bauWcMCjLF6aT3DX7a70G2RqAvgrrZKOhYgzkzUjScYI2Jj2Zd6Zo4Z431KQHFDYiQtqKaY9MsoDg3DqN4P31meq7UTcVo91xLcGEDmrEMMErJ37XdFP-n2D_vlCU97y7KsHmZIype1p1Ne5hN0XwXXVFFDTCo3rtyGSKsg-my8wxbeBYdC3wRWx7hSITTiQI78irswjSLlyYfLrhvKpMf8l5qexWM0liAkeGdWZxnm82qaeOnhqnpBH6NVsiPCLpT83uC48z7h9ZbohQeCW5FpXsmsEpVYBBiFAwxc37_dFxv6qIs4johdN6itQdvywX-hOXIlCdx6BdYw5yh3FJANne2TIwdrFw5mDHamFDaYnKQWcZ4jt-Cj2wWcE0Vr6MaEeEvgGAE1i-8gi6xTBmCDK-a6EmaRct3AK5eFMsLLQPrT8k49h-fzQiq4Jla2vnd9Bou6St_ezDumLxNTsX5BBFVYpjliDUefFRUzOliFPUTPe5ITCcFyFeUU-38Ryt2XKrPM6fNvTchRklxfTiE8M9yo766sa72qExulk-yFxeZjTz2wE7UnZSThUj1QCu6-KIWKPT0trAly1]--></g></svg>