<svg xmlns="http://www.w3.org/2000/svg" xmlns:xlink="http://www.w3.org/1999/xlink" contentStyleType="text/css" height="1044px" preserveAspectRatio="none" style="width:558px;height:1044px;background:#FFFFFF;" version="1.1" viewBox="0 0 558 1044" width="558px" zoomAndPan="magnify"><defs/><g><rect fill="none" height="77.3984" style="stroke:#000000;stroke-width:1.5;" width="323.022" x="30" y="227.8281"/><rect fill="none" height="148.4688" style="stroke:#000000;stroke-width:1.5;" width="521.9023" x="30" y="343.3594"/><rect fill="none" height="90.2031" style="stroke:#000000;stroke-width:1.5;" width="323.022" x="30" y="588.2266"/><rect fill="none" height="17.1328" style="stroke:#000000;stroke-width:1.5;" width="91.9517" x="50" y="692.4297"/><rect fill="none" height="223.0625" style="stroke:#000000;stroke-width:1.5;" width="521.9023" x="30" y="723.5625"/><rect fill="none" height="17.1328" style="stroke:#000000;stroke-width:1.5;" width="91.9517" x="50" y="864.2266"/><line style="stroke:#181818;stroke-width:0.5;stroke-dasharray:5.0,5.0;" x1="69" x2="69" y1="81.2969" y2="963.625"/><line style="stroke:#181818;stroke-width:0.5;stroke-dasharray:5.0,5.0;" x1="137.4727" x2="137.4727" y1="81.2969" y2="963.625"/><line style="stroke:#181818;stroke-width:0.5;stroke-dasharray:5.0,5.0;" x1="314.3433" x2="314.3433" y1="81.2969" y2="963.625"/><line style="stroke:#181818;stroke-width:0.5;stroke-dasharray:5.0,5.0;" x1="513.5107" x2="513.5107" y1="81.2969" y2="963.625"/><text fill="#000000" font-family="sans-serif" font-size="14" lengthAdjust="spacing" textLength="52.4727" x="40" y="77.9951">Player1</text><ellipse cx="69.2363" cy="13.5" fill="#E2E2F0" rx="8" ry="8" style="stroke:#181818;stroke-width:0.5;"/><path d="M69.2363,21.5 L69.2363,48.5 M56.2363,29.5 L82.2363,29.5 M69.2363,48.5 L56.2363,63.5 M69.2363,48.5 L82.2363,63.5 " fill="none" style="stroke:#181818;stroke-width:0.5;"/><text fill="#000000" font-family="sans-serif" font-size="14" lengthAdjust="spacing" textLength="52.4727" x="40" y="975.6201">Player1</text><ellipse cx="69.2363" cy="987.4219" fill="#E2E2F0" rx="8" ry="8" style="stroke:#181818;stroke-width:0.5;"/><path d="M69.2363,995.4219 L69.2363,1022.4219 M56.2363,1003.4219 L82.2363,1003.4219 M69.2363,1022.4219 L56.2363,1037.4219 M69.2363,1022.4219 L82.2363,1037.4219 " fill="none" style="stroke:#181818;stroke-width:0.5;"/><text fill="#000000" font-family="sans-serif" font-size="14" lengthAdjust="spacing" textLength="52.4727" x="108.4727" y="77.9951">Player2</text><ellipse cx="137.709" cy="13.5" fill="#E2E2F0" rx="8" ry="8" style="stroke:#181818;stroke-width:0.5;"/><path d="M137.709,21.5 L137.709,48.5 M124.709,29.5 L150.709,29.5 M137.709,48.5 L124.709,63.5 M137.709,48.5 L150.709,63.5 " fill="none" style="stroke:#181818;stroke-width:0.5;"/><text fill="#000000" font-family="sans-serif" font-size="14" lengthAdjust="spacing" textLength="52.4727" x="108.4727" y="975.6201">Player2</text><ellipse cx="137.709" cy="987.4219" fill="#E2E2F0" rx="8" ry="8" style="stroke:#181818;stroke-width:0.5;"/><path d="M137.709,995.4219 L137.709,1022.4219 M124.709,1003.4219 L150.709,1003.4219 M137.709,1022.4219 L124.709,1037.4219 M137.709,1022.4219 L150.709,1037.4219 " fill="none" style="stroke:#181818;stroke-width:0.5;"/><rect fill="#E2E2F0" height="30.2969" rx="2.5" ry="2.5" style="stroke:#181818;stroke-width:0.5;" width="55.6787" x="287.3433" y="50"/><text fill="#000000" font-family="sans-serif" font-size="14" lengthAdjust="spacing" textLength="41.6787" x="294.3433" y="69.9951">Game</text><rect fill="#E2E2F0" height="30.2969" rx="2.5" ry="2.5" style="stroke:#181818;stroke-width:0.5;" width="55.6787" x="287.3433" y="962.625"/><text fill="#000000" font-family="sans-serif" font-size="14" lengthAdjust="spacing" textLength="41.6787" x="294.3433" y="982.6201">Game</text><rect fill="#E2E2F0" height="30.2969" rx="2.5" ry="2.5" style="stroke:#181818;stroke-width:0.5;" width="55.3916" x="486.5107" y="50"/><text fill="#000000" font-family="sans-serif" font-size="14" lengthAdjust="spacing" textLength="41.3916" x="493.5107" y="69.9951">Board</text><rect fill="#E2E2F0" height="30.2969" rx="2.5" ry="2.5" style="stroke:#181818;stroke-width:0.5;" width="55.3916" x="486.5107" y="962.625"/><text fill="#000000" font-family="sans-serif" font-size="14" lengthAdjust="spacing" textLength="41.3916" x="493.5107" y="982.6201">Board</text><polygon fill="#181818" points="303.1826,108.4297,313.1826,112.4297,303.1826,116.4297,307.1826,112.4297" style="stroke:#181818;stroke-width:1.0;"/><line style="stroke:#181818;stroke-width:1.0;" x1="69.2363" x2="309.1826" y1="112.4297" y2="112.4297"/><text fill="#000000" font-family="sans-serif" font-size="13" lengthAdjust="spacing" textLength="79.1235" x="76.2363" y="107.3638">startGame()</text><polygon fill="#181818" points="303.1826,137.5625,313.1826,141.5625,303.1826,145.5625,307.1826,141.5625" style="stroke:#181818;stroke-width:1.0;"/><line style="stroke:#181818;stroke-width:1.0;" x1="137.709" x2="309.1826" y1="141.5625" y2="141.5625"/><text fill="#000000" font-family="sans-serif" font-size="13" lengthAdjust="spacing" textLength="79.1235" x="144.709" y="136.4966">startGame()</text><polygon fill="#181818" points="502.2065,166.6953,512.2065,170.6953,502.2065,174.6953,506.2065,170.6953" style="stroke:#181818;stroke-width:1.0;"/><line style="stroke:#181818;stroke-width:1.0;" x1="315.1826" x2="508.2065" y1="170.6953" y2="170.6953"/><text fill="#000000" font-family="sans-serif" font-size="13" lengthAdjust="spacing" textLength="64.3271" x="322.1826" y="165.6294">initialize()</text><line style="stroke:#181818;stroke-width:1.0;" x1="315.1826" x2="357.1826" y1="199.8281" y2="199.8281"/><line style="stroke:#181818;stroke-width:1.0;" x1="357.1826" x2="357.1826" y1="199.8281" y2="212.8281"/><line style="stroke:#181818;stroke-width:1.0;" x1="316.1826" x2="357.1826" y1="212.8281" y2="212.8281"/><polygon fill="#181818" points="326.1826,208.8281,316.1826,212.8281,326.1826,216.8281,322.1826,212.8281" style="stroke:#181818;stroke-width:1.0;"/><text fill="#000000" font-family="sans-serif" font-size="13" lengthAdjust="spacing" textLength="146.104" x="322.1826" y="194.7622">determineFirstPlayer()</text><path d="M30,227.8281 L94.4429,227.8281 L94.4429,234.9609 L84.4429,244.9609 L30,244.9609 L30,227.8281 " fill="#EEEEEE" style="stroke:#000000;stroke-width:1.5;"/><rect fill="none" height="77.3984" style="stroke:#000000;stroke-width:1.5;" width="323.022" x="30" y="227.8281"/><text fill="#000000" font-family="sans-serif" font-size="13" font-weight="bold" lengthAdjust="spacing" textLength="19.4429" x="45" y="240.895">alt</text><text fill="#000000" font-family="sans-serif" font-size="11" font-weight="bold" lengthAdjust="spacing" textLength="151.2017" x="109.4429" y="240.0386">[Random player chosen]</text><polygon fill="#181818" points="80.2363,262.0938,70.2363,266.0938,80.2363,270.0938,76.2363,266.0938" style="stroke:#181818;stroke-width:1.0;"/><line style="stroke:#181818;stroke-width:1.0;" x1="74.2363" x2="314.1826" y1="266.0938" y2="266.0938"/><text fill="#000000" font-family="sans-serif" font-size="13" lengthAdjust="spacing" textLength="89.9082" x="86.2363" y="261.0278">Player1 starts</text><line style="stroke:#000000;stroke-width:1.0;stroke-dasharray:2.0,2.0;" x1="30" x2="353.022" y1="275.0938" y2="275.0938"/><polygon fill="#181818" points="148.709,293.2266,138.709,297.2266,148.709,301.2266,144.709,297.2266" style="stroke:#181818;stroke-width:1.0;"/><line style="stroke:#181818;stroke-width:1.0;" x1="142.709" x2="314.1826" y1="297.2266" y2="297.2266"/><text fill="#000000" font-family="sans-serif" font-size="13" lengthAdjust="spacing" textLength="89.9082" x="154.709" y="292.1606">Player2 starts</text><path d="M30,343.3594 L94.4429,343.3594 L94.4429,350.4922 L84.4429,360.4922 L30,360.4922 L30,343.3594 " fill="#EEEEEE" style="stroke:#000000;stroke-width:1.5;"/><rect fill="none" height="148.4688" style="stroke:#000000;stroke-width:1.5;" width="521.9023" x="30" y="343.3594"/><text fill="#000000" font-family="sans-serif" font-size="13" font-weight="bold" lengthAdjust="spacing" textLength="19.4429" x="45" y="356.4263">alt</text><text fill="#000000" font-family="sans-serif" font-size="11" font-weight="bold" lengthAdjust="spacing" textLength="97.1094" x="109.4429" y="355.5698">[Player1's turn]</text><polygon fill="#181818" points="303.1826,377.625,313.1826,381.625,303.1826,385.625,307.1826,381.625" style="stroke:#181818;stroke-width:1.0;"/><line style="stroke:#181818;stroke-width:1.0;" x1="69.2363" x2="309.1826" y1="381.625" y2="381.625"/><text fill="#000000" font-family="sans-serif" font-size="13" lengthAdjust="spacing" textLength="104.8125" x="76.2363" y="376.5591">makeMove(x, y)</text><polygon fill="#181818" points="502.2065,406.7578,512.2065,410.7578,502.2065,414.7578,506.2065,410.7578" style="stroke:#181818;stroke-width:1.0;"/><line style="stroke:#181818;stroke-width:1.0;" x1="315.1826" x2="508.2065" y1="410.7578" y2="410.7578"/><text fill="#000000" font-family="sans-serif" font-size="13" lengthAdjust="spacing" textLength="175.0239" x="322.1826" y="405.6919">updateBoard(x, y, Player1)</text><line style="stroke:#000000;stroke-width:1.0;stroke-dasharray:2.0,2.0;" x1="30" x2="551.9023" y1="419.7578" y2="419.7578"/><text fill="#000000" font-family="sans-serif" font-size="11" font-weight="bold" lengthAdjust="spacing" textLength="97.1094" x="35" y="429.9683">[Player2's turn]</text><polygon fill="#181818" points="303.1826,450.6953,313.1826,454.6953,303.1826,458.6953,307.1826,454.6953" style="stroke:#181818;stroke-width:1.0;"/><line style="stroke:#181818;stroke-width:1.0;" x1="137.709" x2="309.1826" y1="454.6953" y2="454.6953"/><text fill="#000000" font-family="sans-serif" font-size="13" lengthAdjust="spacing" textLength="104.8125" x="144.709" y="449.6294">makeMove(x, y)</text><polygon fill="#181818" points="502.2065,479.8281,512.2065,483.8281,502.2065,487.8281,506.2065,483.8281" style="stroke:#181818;stroke-width:1.0;"/><line style="stroke:#181818;stroke-width:1.0;" x1="315.1826" x2="508.2065" y1="483.8281" y2="483.8281"/><text fill="#000000" font-family="sans-serif" font-size="13" lengthAdjust="spacing" textLength="175.0239" x="322.1826" y="478.7622">updateBoard(x, y, Player2)</text><polygon fill="#181818" points="502.2065,540.0938,512.2065,544.0938,502.2065,548.0938,506.2065,544.0938" style="stroke:#181818;stroke-width:1.0;"/><line style="stroke:#181818;stroke-width:1.0;" x1="315.1826" x2="508.2065" y1="544.0938" y2="544.0938"/><text fill="#000000" font-family="sans-serif" font-size="13" lengthAdjust="spacing" textLength="72.9092" x="322.1826" y="539.0278">checkWin()</text><polygon fill="#181818" points="326.1826,569.2266,316.1826,573.2266,326.1826,577.2266,322.1826,573.2266" style="stroke:#181818;stroke-width:1.0;"/><line style="stroke:#181818;stroke-width:1.0;" x1="320.1826" x2="513.2065" y1="573.2266" y2="573.2266"/><text fill="#000000" font-family="sans-serif" font-size="13" lengthAdjust="spacing" textLength="68.3198" x="332.1826" y="568.1606">win = true</text><path d="M30,588.2266 L94.4429,588.2266 L94.4429,595.3594 L84.4429,605.3594 L30,605.3594 L30,588.2266 " fill="#EEEEEE" style="stroke:#000000;stroke-width:1.5;"/><rect fill="none" height="90.2031" style="stroke:#000000;stroke-width:1.5;" width="323.022" x="30" y="588.2266"/><text fill="#000000" font-family="sans-serif" font-size="13" font-weight="bold" lengthAdjust="spacing" textLength="19.4429" x="45" y="601.2935">alt</text><text fill="#000000" font-family="sans-serif" font-size="11" font-weight="bold" lengthAdjust="spacing" textLength="89.1602" x="109.4429" y="600.437">[Player1 wins]</text><polygon fill="#181818" points="80.2363,622.4922,70.2363,626.4922,80.2363,630.4922,76.2363,626.4922" style="stroke:#181818;stroke-width:1.0;"/><line style="stroke:#181818;stroke-width:1.0;" x1="74.2363" x2="314.1826" y1="626.4922" y2="626.4922"/><text fill="#000000" font-family="sans-serif" font-size="13" lengthAdjust="spacing" textLength="153.4736" x="86.2363" y="621.4263">declareWinner(Player1)</text><line style="stroke:#000000;stroke-width:1.0;stroke-dasharray:2.0,2.0;" x1="30" x2="353.022" y1="635.4922" y2="635.4922"/><text fill="#000000" font-family="sans-serif" font-size="11" font-weight="bold" lengthAdjust="spacing" textLength="89.1602" x="35" y="645.7026">[Player2 wins]</text><polygon fill="#181818" points="148.709,666.4297,138.709,670.4297,148.709,674.4297,144.709,670.4297" style="stroke:#181818;stroke-width:1.0;"/><line style="stroke:#181818;stroke-width:1.0;" x1="142.709" x2="314.1826" y1="670.4297" y2="670.4297"/><text fill="#000000" font-family="sans-serif" font-size="13" lengthAdjust="spacing" textLength="153.4736" x="154.709" y="665.3638">declareWinner(Player2)</text><path d="M50,692.4297 L136.9517,692.4297 L136.9517,699.5625 L126.9517,709.5625 L50,709.5625 L50,692.4297 " fill="#EEEEEE" style="stroke:#000000;stroke-width:1.5;"/><rect fill="none" height="17.1328" style="stroke:#000000;stroke-width:1.5;" width="91.9517" x="50" y="692.4297"/><text fill="#000000" font-family="sans-serif" font-size="13" font-weight="bold" lengthAdjust="spacing" textLength="41.9517" x="65" y="705.4966">break</text><path d="M30,723.5625 L94.4429,723.5625 L94.4429,730.6953 L84.4429,740.6953 L30,740.6953 L30,723.5625 " fill="#EEEEEE" style="stroke:#000000;stroke-width:1.5;"/><rect fill="none" height="223.0625" style="stroke:#000000;stroke-width:1.5;" width="521.9023" x="30" y="723.5625"/><text fill="#000000" font-family="sans-serif" font-size="13" font-weight="bold" lengthAdjust="spacing" textLength="19.4429" x="45" y="736.6294">alt</text><text fill="#000000" font-family="sans-serif" font-size="11" font-weight="bold" lengthAdjust="spacing" textLength="103.5654" x="109.4429" y="735.7729">[Check for draw]</text><polygon fill="#181818" points="502.2065,757.8281,512.2065,761.8281,502.2065,765.8281,506.2065,761.8281" style="stroke:#181818;stroke-width:1.0;"/><line style="stroke:#181818;stroke-width:1.0;" x1="315.1826" x2="508.2065" y1="761.8281" y2="761.8281"/><text fill="#000000" font-family="sans-serif" font-size="13" lengthAdjust="spacing" textLength="54.4819" x="322.1826" y="756.7622">isDraw()</text><polygon fill="#181818" points="326.1826,786.9609,316.1826,790.9609,326.1826,794.9609,322.1826,790.9609" style="stroke:#181818;stroke-width:1.0;"/><line style="stroke:#181818;stroke-width:1.0;" x1="320.1826" x2="513.2065" y1="790.9609" y2="790.9609"/><text fill="#000000" font-family="sans-serif" font-size="13" lengthAdjust="spacing" textLength="78.0317" x="332.1826" y="785.895">draw = true</text><polygon fill="#181818" points="80.2363,816.0938,70.2363,820.0938,80.2363,824.0938,76.2363,820.0938" style="stroke:#181818;stroke-width:1.0;"/><line style="stroke:#181818;stroke-width:1.0;" x1="74.2363" x2="314.1826" y1="820.0938" y2="820.0938"/><text fill="#000000" font-family="sans-serif" font-size="13" lengthAdjust="spacing" textLength="92.4155" x="86.2363" y="815.0278">declareDraw()</text><polygon fill="#181818" points="148.709,845.2266,138.709,849.2266,148.709,853.2266,144.709,849.2266" style="stroke:#181818;stroke-width:1.0;"/><line style="stroke:#181818;stroke-width:1.0;" x1="142.709" x2="314.1826" y1="849.2266" y2="849.2266"/><text fill="#000000" font-family="sans-serif" font-size="13" lengthAdjust="spacing" textLength="92.4155" x="154.709" y="844.1606">declareDraw()</text><path d="M50,864.2266 L136.9517,864.2266 L136.9517,871.3594 L126.9517,881.3594 L50,881.3594 L50,864.2266 " fill="#EEEEEE" style="stroke:#000000;stroke-width:1.5;"/><rect fill="none" height="17.1328" style="stroke:#000000;stroke-width:1.5;" width="91.9517" x="50" y="864.2266"/><text fill="#000000" font-family="sans-serif" font-size="13" font-weight="bold" lengthAdjust="spacing" textLength="41.9517" x="65" y="877.2935">break</text><polygon fill="#181818" points="80.2363,905.4922,70.2363,909.4922,80.2363,913.4922,76.2363,909.4922" style="stroke:#181818;stroke-width:1.0;"/><line style="stroke:#181818;stroke-width:1.0;" x1="74.2363" x2="314.1826" y1="909.4922" y2="909.4922"/><text fill="#000000" font-family="sans-serif" font-size="13" lengthAdjust="spacing" textLength="68.9355" x="86.2363" y="904.4263">nextTurn()</text><polygon fill="#181818" points="148.709,934.625,138.709,938.625,148.709,942.625,144.709,938.625" style="stroke:#181818;stroke-width:1.0;"/><line style="stroke:#181818;stroke-width:1.0;" x1="142.709" x2="314.1826" y1="938.625" y2="938.625"/><text fill="#000000" font-family="sans-serif" font-size="13" lengthAdjust="spacing" textLength="68.9355" x="154.709" y="933.5591">nextTurn()</text><!--SRC=[hLCzJyCm4DtpAqvTQAKouB4I381WGa88YVbm3jLgOaUsIrj-FJudpbSJMEh5Pxztx-vU79JUM7Wjy4Js9iFUIMGLMg-agb1xM3nZIGj01nmCeNk3DezOZBAiaOFhkyZUWFE1p-5orO1Y6kIDaIYq0QMLLrYe7yPQi4xBoPCjbQOdPPslLGCB2mzlg7DJGXNlG6wD8vr1M4cXQN2JWhe7br7XQ88e4b6qH1t6B8ofW51kmUzjNO2hDvfNhhlcTMPAYJjwCT-qFAxXj6fv8mlsLOwUuY4Irqcepk2EKtFJ5SMbAegc8e-UPdtOajp1LtWq1wNd12MJFfHUTYKZqZKMak4MlDrJo-WvoR1hWSdlc9Ciq58eeiCh63WqTka_DJ6j9dfgmO4KVrh2tL- -v1OFSyOeznZGULiuT-pBtEWZfRcPHhHX-xnF_oUQZluzlAqczKozXmUXNm00]--></g></svg>