<svg xmlns="http://www.w3.org/2000/svg" xmlns:xlink="http://www.w3.org/1999/xlink" contentStyleType="text/css" height="480px" preserveAspectRatio="none" style="width:1090px;height:480px;background:#FFFFFF;" version="1.1" viewBox="0 0 1090 480" width="1090px" zoomAndPan="magnify"><defs/><g><ellipse cx="419.57" cy="16" fill="#222222" rx="10" ry="10" style="stroke:#222222;stroke-width:1.0;"/><g id="ControleerWinnaar"><rect fill="#F1F1F1" height="50" rx="12.5" ry="12.5" style="stroke:#181818;stroke-width:0.5;" width="152.2891" x="343.43" y="87"/><line style="stroke:#181818;stroke-width:0.5;" x1="343.43" x2="495.7191" y1="113.2969" y2="113.2969"/><text fill="#000000" font-family="sans-serif" font-size="14" lengthAdjust="spacing" textLength="132.2891" x="353.43" y="104.9951">ControleerWinnaar</text></g><g id="Speler1Gewonnen"><rect fill="#F1F1F1" height="50" rx="12.5" ry="12.5" style="stroke:#181818;stroke-width:0.5;" width="148.2627" x="40.44" y="214"/><line style="stroke:#181818;stroke-width:0.5;" x1="40.44" x2="188.7027" y1="240.2969" y2="240.2969"/><text fill="#000000" font-family="sans-serif" font-size="14" lengthAdjust="spacing" textLength="128.2627" x="50.44" y="231.9951">Speler1Gewonnen</text></g><g id="Speler2Gewonnen"><rect fill="#F1F1F1" height="50" rx="12.5" ry="12.5" style="stroke:#181818;stroke-width:0.5;" width="148.2627" x="345.44" y="214"/><line style="stroke:#181818;stroke-width:0.5;" x1="345.44" x2="493.7027" y1="240.2969" y2="240.2969"/><text fill="#000000" font-family="sans-serif" font-size="14" lengthAdjust="spacing" textLength="128.2627" x="355.44" y="231.9951">Speler2Gewonnen</text></g><g id="Gelijkspel"><rect fill="#F1F1F1" height="50" rx="12.5" ry="12.5" style="stroke:#181818;stroke-width:0.5;" width="87.9219" x="703.61" y="214"/><line style="stroke:#181818;stroke-width:0.5;" x1="703.61" x2="791.5319" y1="240.2969" y2="240.2969"/><text fill="#000000" font-family="sans-serif" font-size="14" lengthAdjust="spacing" textLength="67.9219" x="713.61" y="231.9951">Gelijkspel</text></g><g id="EindeSpel"><rect fill="#F1F1F1" height="50" rx="12.5" ry="12.5" style="stroke:#181818;stroke-width:0.5;" width="89.3848" x="374.88" y="341"/><line style="stroke:#181818;stroke-width:0.5;" x1="374.88" x2="464.2648" y1="367.2969" y2="367.2969"/><text fill="#000000" font-family="sans-serif" font-size="14" lengthAdjust="spacing" textLength="69.3848" x="384.88" y="358.9951">EindeSpel</text></g><ellipse cx="419.57" cy="463" fill="none" rx="11" ry="11" style="stroke:#222222;stroke-width:1.0;"/><ellipse cx="419.57" cy="463" fill="#222222" rx="6" ry="6" style="stroke:#222222;stroke-width:1.0;"/><!--link *start* to ControleerWinnaar--><g id="link_*start*_ControleerWinnaar"><path d="M419.57,26.36 C419.57,40.29 419.57,60.95 419.57,80.65 " fill="none" id="*start*-to-ControleerWinnaar" style="stroke:#181818;stroke-width:1.0;"/><polygon fill="#181818" points="419.57,86.65,423.57,77.65,419.57,81.65,415.57,77.65,419.57,86.65" style="stroke:#181818;stroke-width:1.0;"/></g><!--link ControleerWinnaar to Speler1Gewonnen--><g id="link_ControleerWinnaar_Speler1Gewonnen"><path d="M343.36,118 C233.74,125.99 42.39,143.17 21.57,167 C6,184.82 18.5325,198.37 42.6225,210.85 " fill="none" id="ControleerWinnaar-to-Speler1Gewonnen" style="stroke:#181818;stroke-width:1.0;"/><polygon fill="#181818" points="47.95,213.61,41.7987,205.9184,43.5104,211.31,38.1187,213.0217,47.95,213.61" style="stroke:#181818;stroke-width:1.0;"/><text fill="#000000" font-family="sans-serif" font-size="13" lengthAdjust="spacing" textLength="385.1758" x="22.57" y="180.0669">GVL.Driehoek_1 AND GVL.Driehoek_2 AND GVL.Driehoek_3</text></g><!--link ControleerWinnaar to Speler2Gewonnen--><g id="link_ControleerWinnaar_Speler2Gewonnen"><path d="M417.93,137.45 C417.38,146.7 416.84,157.33 416.57,167 C416.14,182.54 416.4931,193.9912 417.3331,207.7012 " fill="none" id="ControleerWinnaar-to-Speler2Gewonnen" style="stroke:#181818;stroke-width:1.0;"/><polygon fill="#181818" points="417.7,213.69,421.1421,204.4622,417.3942,208.6994,413.1571,204.9515,417.7,213.69" style="stroke:#181818;stroke-width:1.0;"/><text fill="#000000" font-family="sans-serif" font-size="13" lengthAdjust="spacing" textLength="344.3857" x="417.57" y="180.0669">GVL.Rondje_1 AND GVL.Rondje_2 AND GVL.Rondje_3</text></g><!--link ControleerWinnaar to Gelijkspel--><g id="link_ControleerWinnaar_Gelijkspel"><path d="M496.12,113.76 C587.55,116.49 732.47,127.18 766.57,167 C777.61,179.89 774.849,193.2429 766.959,208.2029 " fill="none" id="ControleerWinnaar-to-Gelijkspel" style="stroke:#181818;stroke-width:1.0;"/><polygon fill="#181818" points="764.16,213.51,771.8966,207.4153,766.4925,209.0874,764.8204,203.6833,764.16,213.51" style="stroke:#181818;stroke-width:1.0;"/><text fill="#000000" font-family="sans-serif" font-size="13" lengthAdjust="spacing" textLength="309.0229" x="773.75" y="180.0669">(GVL.Driehoek_1 t/m 9 OR GVL.Rondje_1 t/m 9)</text></g><!--link Speler1Gewonnen to EindeSpel--><g id="link_Speler1Gewonnen_EindeSpel"><path d="M174.1,264.4 C232.87,288.48 315.878,322.5051 369.008,344.2751 " fill="none" id="Speler1Gewonnen-to-EindeSpel" style="stroke:#181818;stroke-width:1.0;"/><polygon fill="#181818" points="374.56,346.55,367.7486,339.4363,369.9333,344.6542,364.7154,346.8389,374.56,346.55" style="stroke:#181818;stroke-width:1.0;"/><text fill="#000000" font-family="sans-serif" font-size="13" lengthAdjust="spacing" textLength="114.1499" x="286.33" y="307.0669">GVL.winnaar := 1</text></g><!--link Speler2Gewonnen to EindeSpel--><g id="link_Speler2Gewonnen_EindeSpel"><path d="M419.57,264.4 C419.57,286.42 419.57,312.66 419.57,334.66 " fill="none" id="Speler2Gewonnen-to-EindeSpel" style="stroke:#181818;stroke-width:1.0;"/><polygon fill="#181818" points="419.57,340.66,423.57,331.66,419.57,335.66,415.57,331.66,419.57,340.66" style="stroke:#181818;stroke-width:1.0;"/><text fill="#000000" font-family="sans-serif" font-size="13" lengthAdjust="spacing" textLength="114.1499" x="420.57" y="307.0669">GVL.winnaar := 2</text></g><!--link Gelijkspel to EindeSpel--><g id="link_Gelijkspel_EindeSpel"><path d="M703.34,256.86 C640.91,280.65 533.1867,321.7034 470.2867,345.6734 " fill="none" id="Gelijkspel-to-EindeSpel" style="stroke:#181818;stroke-width:1.0;"/><polygon fill="#181818" points="464.68,347.81,474.5144,348.3429,469.3522,346.0295,471.6656,340.8673,464.68,347.81" style="stroke:#181818;stroke-width:1.0;"/><text fill="#000000" font-family="sans-serif" font-size="13" lengthAdjust="spacing" textLength="151.6519" x="604.21" y="307.0669">GVL.Gelijkspel := TRUE</text></g><!--link EindeSpel to *end*--><g id="link_EindeSpel_*end*"><path d="M419.57,391.46 C419.57,411.04 419.57,431.49 419.57,445.8 " fill="none" id="EindeSpel-to-*end*" style="stroke:#181818;stroke-width:1.0;"/><polygon fill="#181818" points="419.57,451.8,423.57,442.8,419.57,446.8,415.57,442.8,419.57,451.8" style="stroke:#181818;stroke-width:1.0;"/></g><!--SRC=[XOzB2u9058NtyolkiWGBfrM2GQIuYGBjiH09mGkDsfsO1Fz-Qa8wzjX-dFFTSoCZ1jDSmKPIgMI1gCw2A4aKOoFK1iCx5gWi7oj9X0Gs-AVjp5K2hnBpYmNhdJj4V8mMF-LSamUIqWnxwWvm7NpJ-bY8B7_KyjeuqVQMyniiOHyCJxLqolHl6vidACNm9MiwLNV9Ti1Y-WT_2fprjdtAzgSxS0YE7cFlJDE8ZFW9]--></g></svg>