<svg xmlns="http://www.w3.org/2000/svg" xmlns:xlink="http://www.w3.org/1999/xlink" contentStyleType="text/css" height="1372px" preserveAspectRatio="none" style="width:568px;height:1372px;background:#FFFFFF;" version="1.1" viewBox="0 0 568 1372" width="568px" zoomAndPan="magnify"><defs/><g><rect fill="none" height="583.4688" style="stroke:#000000;stroke-width:1.5;" width="360.8574" x="200.9873" y="620.0234"/><rect fill="none" height="101.3984" style="stroke:#000000;stroke-width:1.5;" width="313.5269" x="210.9873" y="1052.9609"/><line style="stroke:#181818;stroke-width:0.5;stroke-dasharray:5.0,5.0;" x1="30" x2="30" y1="81.2969" y2="1291.7578"/><line style="stroke:#181818;stroke-width:0.5;stroke-dasharray:5.0,5.0;" x1="237.9873" x2="237.9873" y1="81.2969" y2="1291.7578"/><text fill="#000000" font-family="sans-serif" font-size="14" lengthAdjust="spacing" textLength="44.6455" x="5" y="77.9951">Speler</text><ellipse cx="30.3228" cy="13.5" fill="#E2E2F0" rx="8" ry="8" style="stroke:#181818;stroke-width:0.5;"/><path d="M30.3228,21.5 L30.3228,48.5 M17.3228,29.5 L43.3228,29.5 M30.3228,48.5 L17.3228,63.5 M30.3228,48.5 L43.3228,63.5 " fill="none" style="stroke:#181818;stroke-width:0.5;"/><text fill="#000000" font-family="sans-serif" font-size="14" lengthAdjust="spacing" textLength="44.6455" x="5" y="1303.7529">Speler</text><ellipse cx="30.3228" cy="1315.5547" fill="#E2E2F0" rx="8" ry="8" style="stroke:#181818;stroke-width:0.5;"/><path d="M30.3228,1323.5547 L30.3228,1350.5547 M17.3228,1331.5547 L43.3228,1331.5547 M30.3228,1350.5547 L17.3228,1365.5547 M30.3228,1350.5547 L43.3228,1365.5547 " fill="none" style="stroke:#181818;stroke-width:0.5;"/><text fill="#000000" font-family="sans-serif" font-size="14" lengthAdjust="spacing" textLength="28.2256" x="220.9873" y="77.9951">GVL</text><ellipse cx="238.1001" cy="49" fill="#E2E2F0" rx="12" ry="12" style="stroke:#181818;stroke-width:0.5;"/><line style="stroke:#181818;stroke-width:0.5;" x1="226.1001" x2="250.1001" y1="63" y2="63"/><text fill="#000000" font-family="sans-serif" font-size="14" lengthAdjust="spacing" textLength="28.2256" x="220.9873" y="1303.7529">GVL</text><ellipse cx="238.1001" cy="1323.0547" fill="#E2E2F0" rx="12" ry="12" style="stroke:#181818;stroke-width:0.5;"/><line style="stroke:#181818;stroke-width:0.5;" x1="226.1001" x2="250.1001" y1="1337.0547" y2="1337.0547"/><polygon fill="#181818" points="226.1001,108.4297,236.1001,112.4297,226.1001,116.4297,230.1001,112.4297" style="stroke:#181818;stroke-width:1.0;"/><line style="stroke:#181818;stroke-width:1.0;" x1="30.3228" x2="232.1001" y1="112.4297" y2="112.4297"/><text fill="#000000" font-family="sans-serif" font-size="13" lengthAdjust="spacing" textLength="178.7563" x="37.3228" y="107.3638">Start het spel (Begin_Knop)</text><line style="stroke:#181818;stroke-width:1.0;" x1="238.1001" x2="280.1001" y1="141.5625" y2="141.5625"/><line style="stroke:#181818;stroke-width:1.0;" x1="280.1001" x2="280.1001" y1="141.5625" y2="154.5625"/><line style="stroke:#181818;stroke-width:1.0;" x1="239.1001" x2="280.1001" y1="154.5625" y2="154.5625"/><polygon fill="#181818" points="249.1001,150.5625,239.1001,154.5625,249.1001,158.5625,245.1001,154.5625" style="stroke:#181818;stroke-width:1.0;"/><text fill="#000000" font-family="sans-serif" font-size="13" lengthAdjust="spacing" textLength="161.1353" x="245.1001" y="136.4966">Verhoog randomCounter</text><line style="stroke:#181818;stroke-width:1.0;" x1="238.1001" x2="280.1001" y1="183.6953" y2="183.6953"/><line style="stroke:#181818;stroke-width:1.0;" x1="280.1001" x2="280.1001" y1="183.6953" y2="196.6953"/><line style="stroke:#181818;stroke-width:1.0;" x1="239.1001" x2="280.1001" y1="196.6953" y2="196.6953"/><polygon fill="#181818" points="249.1001,192.6953,239.1001,196.6953,249.1001,200.6953,245.1001,196.6953" style="stroke:#181818;stroke-width:1.0;"/><text fill="#000000" font-family="sans-serif" font-size="13" lengthAdjust="spacing" textLength="306.5601" x="245.1001" y="178.6294">Genereer pseudo-willekeurig getal (tempRand)</text><line style="stroke:#181818;stroke-width:1.0;" x1="238.1001" x2="280.1001" y1="225.8281" y2="225.8281"/><line style="stroke:#181818;stroke-width:1.0;" x1="280.1001" x2="280.1001" y1="225.8281" y2="238.8281"/><line style="stroke:#181818;stroke-width:1.0;" x1="239.1001" x2="280.1001" y1="238.8281" y2="238.8281"/><polygon fill="#181818" points="249.1001,234.8281,239.1001,238.8281,249.1001,242.8281,245.1001,238.8281" style="stroke:#181818;stroke-width:1.0;"/><text fill="#000000" font-family="sans-serif" font-size="13" lengthAdjust="spacing" textLength="130.292" x="245.1001" y="220.7622">Bepaal speler 1 of 2</text><line style="stroke:#181818;stroke-width:1.0;" x1="238.1001" x2="280.1001" y1="267.9609" y2="267.9609"/><line style="stroke:#181818;stroke-width:1.0;" x1="280.1001" x2="280.1001" y1="267.9609" y2="280.9609"/><line style="stroke:#181818;stroke-width:1.0;" x1="239.1001" x2="280.1001" y1="280.9609" y2="280.9609"/><polygon fill="#181818" points="249.1001,276.9609,239.1001,280.9609,249.1001,284.9609,245.1001,280.9609" style="stroke:#181818;stroke-width:1.0;"/><text fill="#000000" font-family="sans-serif" font-size="13" lengthAdjust="spacing" textLength="234.4761" x="245.1001" y="262.895">Zet Player_1_Lamp / Player_2_Lamp</text><line style="stroke:#181818;stroke-width:1.0;" x1="238.1001" x2="280.1001" y1="310.0938" y2="310.0938"/><line style="stroke:#181818;stroke-width:1.0;" x1="280.1001" x2="280.1001" y1="310.0938" y2="323.0938"/><line style="stroke:#181818;stroke-width:1.0;" x1="239.1001" x2="280.1001" y1="323.0938" y2="323.0938"/><polygon fill="#181818" points="249.1001,319.0938,239.1001,323.0938,249.1001,327.0938,245.1001,323.0938" style="stroke:#181818;stroke-width:1.0;"/><text fill="#000000" font-family="sans-serif" font-size="13" lengthAdjust="spacing" textLength="155.5112" x="245.1001" y="305.0278">Zet game_status naar 1</text><polygon fill="#181818" points="226.1001,348.2266,236.1001,352.2266,226.1001,356.2266,230.1001,352.2266" style="stroke:#181818;stroke-width:1.0;"/><line style="stroke:#181818;stroke-width:1.0;" x1="30.3228" x2="232.1001" y1="352.2266" y2="352.2266"/><text fill="#000000" font-family="sans-serif" font-size="13" lengthAdjust="spacing" textLength="163.3125" x="37.3228" y="347.1606">Zet figuur (Rechthoek_X)</text><line style="stroke:#181818;stroke-width:1.0;" x1="238.1001" x2="280.1001" y1="381.3594" y2="381.3594"/><line style="stroke:#181818;stroke-width:1.0;" x1="280.1001" x2="280.1001" y1="381.3594" y2="394.3594"/><line style="stroke:#181818;stroke-width:1.0;" x1="239.1001" x2="280.1001" y1="394.3594" y2="394.3594"/><polygon fill="#181818" points="249.1001,390.3594,239.1001,394.3594,249.1001,398.3594,245.1001,394.3594" style="stroke:#181818;stroke-width:1.0;"/><text fill="#000000" font-family="sans-serif" font-size="13" lengthAdjust="spacing" textLength="241.833" x="245.1001" y="376.2935">Controleer speler (Player_1/Player_2)</text><line style="stroke:#181818;stroke-width:1.0;" x1="238.1001" x2="280.1001" y1="423.4922" y2="423.4922"/><line style="stroke:#181818;stroke-width:1.0;" x1="280.1001" x2="280.1001" y1="423.4922" y2="436.4922"/><line style="stroke:#181818;stroke-width:1.0;" x1="239.1001" x2="280.1001" y1="436.4922" y2="436.4922"/><polygon fill="#181818" points="249.1001,432.4922,239.1001,436.4922,249.1001,440.4922,245.1001,436.4922" style="stroke:#181818;stroke-width:1.0;"/><text fill="#000000" font-family="sans-serif" font-size="13" lengthAdjust="spacing" textLength="204.0771" x="245.1001" y="418.4263">Plaats figuur (Driehoek/Rondje)</text><line style="stroke:#181818;stroke-width:1.0;" x1="238.1001" x2="280.1001" y1="465.625" y2="465.625"/><line style="stroke:#181818;stroke-width:1.0;" x1="280.1001" x2="280.1001" y1="465.625" y2="478.625"/><line style="stroke:#181818;stroke-width:1.0;" x1="239.1001" x2="280.1001" y1="478.625" y2="478.625"/><polygon fill="#181818" points="249.1001,474.625,239.1001,478.625,249.1001,482.625,245.1001,478.625" style="stroke:#181818;stroke-width:1.0;"/><text fill="#000000" font-family="sans-serif" font-size="13" lengthAdjust="spacing" textLength="150.4077" x="245.1001" y="460.5591">Zet zetGedaan = TRUE</text><line style="stroke:#181818;stroke-width:1.0;" x1="238.1001" x2="280.1001" y1="507.7578" y2="507.7578"/><line style="stroke:#181818;stroke-width:1.0;" x1="280.1001" x2="280.1001" y1="507.7578" y2="520.7578"/><line style="stroke:#181818;stroke-width:1.0;" x1="239.1001" x2="280.1001" y1="520.7578" y2="520.7578"/><polygon fill="#181818" points="249.1001,516.7578,239.1001,520.7578,249.1001,524.7578,245.1001,520.7578" style="stroke:#181818;stroke-width:1.0;"/><text fill="#000000" font-family="sans-serif" font-size="13" lengthAdjust="spacing" textLength="228.2046" x="245.1001" y="502.6919">Verander beurt (Player_1/Player_2)</text><line style="stroke:#181818;stroke-width:1.0;" x1="238.1001" x2="280.1001" y1="549.8906" y2="549.8906"/><line style="stroke:#181818;stroke-width:1.0;" x1="280.1001" x2="280.1001" y1="549.8906" y2="562.8906"/><line style="stroke:#181818;stroke-width:1.0;" x1="239.1001" x2="280.1001" y1="562.8906" y2="562.8906"/><polygon fill="#181818" points="249.1001,558.8906,239.1001,562.8906,249.1001,566.8906,245.1001,562.8906" style="stroke:#181818;stroke-width:1.0;"/><text fill="#000000" font-family="sans-serif" font-size="13" lengthAdjust="spacing" textLength="155.5112" x="245.1001" y="544.8247">Zet game_status naar 2</text><line style="stroke:#181818;stroke-width:1.0;" x1="238.1001" x2="280.1001" y1="592.0234" y2="592.0234"/><line style="stroke:#181818;stroke-width:1.0;" x1="280.1001" x2="280.1001" y1="592.0234" y2="605.0234"/><line style="stroke:#181818;stroke-width:1.0;" x1="239.1001" x2="280.1001" y1="605.0234" y2="605.0234"/><polygon fill="#181818" points="249.1001,601.0234,239.1001,605.0234,249.1001,609.0234,245.1001,605.0234" style="stroke:#181818;stroke-width:1.0;"/><text fill="#000000" font-family="sans-serif" font-size="13" lengthAdjust="spacing" textLength="286.6221" x="245.1001" y="586.9575">Controleer winnaar (Driehoek/Rondje lijnen)</text><path d="M200.9873,620.0234 L265.4302,620.0234 L265.4302,627.1563 L255.4302,637.1563 L200.9873,637.1563 L200.9873,620.0234 " fill="#EEEEEE" style="stroke:#000000;stroke-width:1.5;"/><rect fill="none" height="583.4688" style="stroke:#000000;stroke-width:1.5;" width="360.8574" x="200.9873" y="620.0234"/><text fill="#000000" font-family="sans-serif" font-size="13" font-weight="bold" lengthAdjust="spacing" textLength="19.4429" x="215.9873" y="633.0903">alt</text><text fill="#000000" font-family="sans-serif" font-size="11" font-weight="bold" lengthAdjust="spacing" textLength="92.3022" x="280.4302" y="632.2339">[Speler 1 wint]</text><line style="stroke:#181818;stroke-width:1.0;" x1="238.1001" x2="280.1001" y1="658.2891" y2="658.2891"/><line style="stroke:#181818;stroke-width:1.0;" x1="280.1001" x2="280.1001" y1="658.2891" y2="671.2891"/><line style="stroke:#181818;stroke-width:1.0;" x1="239.1001" x2="280.1001" y1="671.2891" y2="671.2891"/><polygon fill="#181818" points="249.1001,667.2891,239.1001,671.2891,249.1001,675.2891,245.1001,671.2891" style="stroke:#181818;stroke-width:1.0;"/><text fill="#000000" font-family="sans-serif" font-size="13" lengthAdjust="spacing" textLength="105.5615" x="245.1001" y="653.2231">Zet winnaar = 1</text><line style="stroke:#181818;stroke-width:1.0;" x1="238.1001" x2="280.1001" y1="700.4219" y2="700.4219"/><line style="stroke:#181818;stroke-width:1.0;" x1="280.1001" x2="280.1001" y1="700.4219" y2="713.4219"/><line style="stroke:#181818;stroke-width:1.0;" x1="239.1001" x2="280.1001" y1="713.4219" y2="713.4219"/><polygon fill="#181818" points="249.1001,709.4219,239.1001,713.4219,249.1001,717.4219,245.1001,713.4219" style="stroke:#181818;stroke-width:1.0;"/><text fill="#000000" font-family="sans-serif" font-size="13" lengthAdjust="spacing" textLength="168.8604" x="245.1001" y="695.356">Zet Player_1_Lamp_G aan</text><line style="stroke:#181818;stroke-width:1.0;" x1="238.1001" x2="280.1001" y1="742.5547" y2="742.5547"/><line style="stroke:#181818;stroke-width:1.0;" x1="280.1001" x2="280.1001" y1="742.5547" y2="755.5547"/><line style="stroke:#181818;stroke-width:1.0;" x1="239.1001" x2="280.1001" y1="755.5547" y2="755.5547"/><polygon fill="#181818" points="249.1001,751.5547,239.1001,755.5547,249.1001,759.5547,245.1001,755.5547" style="stroke:#181818;stroke-width:1.0;"/><text fill="#000000" font-family="sans-serif" font-size="13" lengthAdjust="spacing" textLength="145.063" x="245.1001" y="737.4888">Zet Player_2_Lamp uit</text><line style="stroke:#181818;stroke-width:1.0;" x1="238.1001" x2="280.1001" y1="784.6875" y2="784.6875"/><line style="stroke:#181818;stroke-width:1.0;" x1="280.1001" x2="280.1001" y1="784.6875" y2="797.6875"/><line style="stroke:#181818;stroke-width:1.0;" x1="239.1001" x2="280.1001" y1="797.6875" y2="797.6875"/><polygon fill="#181818" points="249.1001,793.6875,239.1001,797.6875,249.1001,801.6875,245.1001,797.6875" style="stroke:#181818;stroke-width:1.0;"/><text fill="#000000" font-family="sans-serif" font-size="13" lengthAdjust="spacing" textLength="155.5112" x="245.1001" y="779.6216">Zet game_status naar 3</text><line style="stroke:#000000;stroke-width:1.0;stroke-dasharray:2.0,2.0;" x1="200.9873" x2="561.8447" y1="806.6875" y2="806.6875"/><text fill="#000000" font-family="sans-serif" font-size="11" font-weight="bold" lengthAdjust="spacing" textLength="92.3022" x="205.9873" y="816.8979">[Speler 2 wint]</text><line style="stroke:#181818;stroke-width:1.0;" x1="238.1001" x2="280.1001" y1="841.625" y2="841.625"/><line style="stroke:#181818;stroke-width:1.0;" x1="280.1001" x2="280.1001" y1="841.625" y2="854.625"/><line style="stroke:#181818;stroke-width:1.0;" x1="239.1001" x2="280.1001" y1="854.625" y2="854.625"/><polygon fill="#181818" points="249.1001,850.625,239.1001,854.625,249.1001,858.625,245.1001,854.625" style="stroke:#181818;stroke-width:1.0;"/><text fill="#000000" font-family="sans-serif" font-size="13" lengthAdjust="spacing" textLength="105.5615" x="245.1001" y="836.5591">Zet winnaar = 2</text><line style="stroke:#181818;stroke-width:1.0;" x1="238.1001" x2="280.1001" y1="883.7578" y2="883.7578"/><line style="stroke:#181818;stroke-width:1.0;" x1="280.1001" x2="280.1001" y1="883.7578" y2="896.7578"/><line style="stroke:#181818;stroke-width:1.0;" x1="239.1001" x2="280.1001" y1="896.7578" y2="896.7578"/><polygon fill="#181818" points="249.1001,892.7578,239.1001,896.7578,249.1001,900.7578,245.1001,896.7578" style="stroke:#181818;stroke-width:1.0;"/><text fill="#000000" font-family="sans-serif" font-size="13" lengthAdjust="spacing" textLength="168.8604" x="245.1001" y="878.6919">Zet Player_2_Lamp_G aan</text><line style="stroke:#181818;stroke-width:1.0;" x1="238.1001" x2="280.1001" y1="925.8906" y2="925.8906"/><line style="stroke:#181818;stroke-width:1.0;" x1="280.1001" x2="280.1001" y1="925.8906" y2="938.8906"/><line style="stroke:#181818;stroke-width:1.0;" x1="239.1001" x2="280.1001" y1="938.8906" y2="938.8906"/><polygon fill="#181818" points="249.1001,934.8906,239.1001,938.8906,249.1001,942.8906,245.1001,938.8906" style="stroke:#181818;stroke-width:1.0;"/><text fill="#000000" font-family="sans-serif" font-size="13" lengthAdjust="spacing" textLength="145.063" x="245.1001" y="920.8247">Zet Player_1_Lamp uit</text><line style="stroke:#181818;stroke-width:1.0;" x1="238.1001" x2="280.1001" y1="968.0234" y2="968.0234"/><line style="stroke:#181818;stroke-width:1.0;" x1="280.1001" x2="280.1001" y1="968.0234" y2="981.0234"/><line style="stroke:#181818;stroke-width:1.0;" x1="239.1001" x2="280.1001" y1="981.0234" y2="981.0234"/><polygon fill="#181818" points="249.1001,977.0234,239.1001,981.0234,249.1001,985.0234,245.1001,981.0234" style="stroke:#181818;stroke-width:1.0;"/><text fill="#000000" font-family="sans-serif" font-size="13" lengthAdjust="spacing" textLength="155.5112" x="245.1001" y="962.9575">Zet game_status naar 3</text><line style="stroke:#000000;stroke-width:1.0;stroke-dasharray:2.0,2.0;" x1="200.9873" x2="561.8447" y1="990.0234" y2="990.0234"/><text fill="#000000" font-family="sans-serif" font-size="11" font-weight="bold" lengthAdjust="spacing" textLength="202.6299" x="205.9873" y="1000.2339">[Geen winnaar, check gelijkspel]</text><line style="stroke:#181818;stroke-width:1.0;" x1="238.1001" x2="280.1001" y1="1024.9609" y2="1024.9609"/><line style="stroke:#181818;stroke-width:1.0;" x1="280.1001" x2="280.1001" y1="1024.9609" y2="1037.9609"/><line style="stroke:#181818;stroke-width:1.0;" x1="239.1001" x2="280.1001" y1="1037.9609" y2="1037.9609"/><polygon fill="#181818" points="249.1001,1033.9609,239.1001,1037.9609,249.1001,1041.9609,245.1001,1037.9609" style="stroke:#181818;stroke-width:1.0;"/><text fill="#000000" font-family="sans-serif" font-size="13" lengthAdjust="spacing" textLength="133.999" x="245.1001" y="1019.895">Controleer gelijkspel</text><path d="M210.9873,1052.9609 L275.4302,1052.9609 L275.4302,1060.0938 L265.4302,1070.0938 L210.9873,1070.0938 L210.9873,1052.9609 " fill="#EEEEEE" style="stroke:#000000;stroke-width:1.5;"/><rect fill="none" height="101.3984" style="stroke:#000000;stroke-width:1.5;" width="313.5269" x="210.9873" y="1052.9609"/><text fill="#000000" font-family="sans-serif" font-size="13" font-weight="bold" lengthAdjust="spacing" textLength="19.4429" x="225.9873" y="1066.0278">alt</text><text fill="#000000" font-family="sans-serif" font-size="11" font-weight="bold" lengthAdjust="spacing" textLength="70.8232" x="290.4302" y="1065.1714">[Gelijkspel]</text><line style="stroke:#181818;stroke-width:1.0;" x1="238.1001" x2="280.1001" y1="1091.2266" y2="1091.2266"/><line style="stroke:#181818;stroke-width:1.0;" x1="280.1001" x2="280.1001" y1="1091.2266" y2="1104.2266"/><line style="stroke:#181818;stroke-width:1.0;" x1="239.1001" x2="280.1001" y1="1104.2266" y2="1104.2266"/><polygon fill="#181818" points="249.1001,1100.2266,239.1001,1104.2266,249.1001,1108.2266,245.1001,1104.2266" style="stroke:#181818;stroke-width:1.0;"/><text fill="#000000" font-family="sans-serif" font-size="13" lengthAdjust="spacing" textLength="143.0635" x="245.1001" y="1086.1606">Zet Gelijkspel = TRUE</text><line style="stroke:#181818;stroke-width:1.0;" x1="238.1001" x2="280.1001" y1="1133.3594" y2="1133.3594"/><line style="stroke:#181818;stroke-width:1.0;" x1="280.1001" x2="280.1001" y1="1133.3594" y2="1146.3594"/><line style="stroke:#181818;stroke-width:1.0;" x1="239.1001" x2="280.1001" y1="1146.3594" y2="1146.3594"/><polygon fill="#181818" points="249.1001,1142.3594,239.1001,1146.3594,249.1001,1150.3594,245.1001,1146.3594" style="stroke:#181818;stroke-width:1.0;"/><text fill="#000000" font-family="sans-serif" font-size="13" lengthAdjust="spacing" textLength="267.4141" x="245.1001" y="1128.2935">Zet Player_1_Lamp en Player_2_Lamp uit</text><line style="stroke:#181818;stroke-width:1.0;" x1="238.1001" x2="280.1001" y1="1182.4922" y2="1182.4922"/><line style="stroke:#181818;stroke-width:1.0;" x1="280.1001" x2="280.1001" y1="1182.4922" y2="1195.4922"/><line style="stroke:#181818;stroke-width:1.0;" x1="239.1001" x2="280.1001" y1="1195.4922" y2="1195.4922"/><polygon fill="#181818" points="249.1001,1191.4922,239.1001,1195.4922,249.1001,1199.4922,245.1001,1195.4922" style="stroke:#181818;stroke-width:1.0;"/><text fill="#000000" font-family="sans-serif" font-size="13" lengthAdjust="spacing" textLength="304.7446" x="245.1001" y="1177.4263">Zet game_status naar 1 (terug naar beurtfase)</text><polygon fill="#181818" points="226.1001,1227.625,236.1001,1231.625,226.1001,1235.625,230.1001,1231.625" style="stroke:#181818;stroke-width:1.0;"/><line style="stroke:#181818;stroke-width:1.0;" x1="30.3228" x2="232.1001" y1="1231.625" y2="1231.625"/><text fill="#000000" font-family="sans-serif" font-size="13" lengthAdjust="spacing" textLength="183.7773" x="37.3228" y="1226.5591">Reset het spel (Reset_Knop)</text><line style="stroke:#181818;stroke-width:1.0;" x1="238.1001" x2="280.1001" y1="1260.7578" y2="1260.7578"/><line style="stroke:#181818;stroke-width:1.0;" x1="280.1001" x2="280.1001" y1="1260.7578" y2="1273.7578"/><line style="stroke:#181818;stroke-width:1.0;" x1="239.1001" x2="280.1001" y1="1273.7578" y2="1273.7578"/><polygon fill="#181818" points="249.1001,1269.7578,239.1001,1273.7578,249.1001,1277.7578,245.1001,1273.7578" style="stroke:#181818;stroke-width:1.0;"/><text fill="#000000" font-family="sans-serif" font-size="13" lengthAdjust="spacing" textLength="251.1133" x="245.1001" y="1255.6919">Reset alle variabelen naar beginstatus</text><!--SRC=[dPHDJyCm38Rl_HK-RXBJj793WiC0zG07L3w4k5HczTfiNL8bBWX-FSww3lencDZDwRlNZ-t4k61ZuRwaWcn0cXL_GFHq6mJr4KmkV0XdSCze6N9YSF85HdFAb4vkj2d7WLViXKzaSsCoiAXJixaqbMQnRaaYqcH9t4j7LMecxweeQ4sLLHban2ZsJ9io5eUE-PnAbC-kXfk1MKBOLhm8uLs17sIJMNABcnAcJHnkuxuymmqbZf4h1nfHVFlbUzrIPLLbOHJJ8kVSq3fvxk1T6itM5Bwq7UAeOPas49s_o36ostjVMKNUUXeRdQvetAVz98ueHTHm3W_nutMl-z8rIVmgxUI_qm_M7mO7otfNUYlfWaAXLfhqEC22TzT9nYDg3a1-lPoDpxaqUr3Gcc4IWHJygx0UBbJgGC9UaQS15OuQrl0erl08X2DOP_zaZOXqGtC2YvmMQtalqlcrlsrzhnzpwyZybABsqI39jwQvRGUbxTe4T7WmfDCZYvxvBM2hh8wsztc9Jfw4j-Wzq9WS_TnFstXeFzL2b8q3RsWLlegFRdB8JgiHlW00]--></g></svg>