<svg xmlns="http://www.w3.org/2000/svg" xmlns:xlink="http://www.w3.org/1999/xlink" contentStyleType="text/css" height="369px" preserveAspectRatio="none" style="width:337px;height:369px;background:#FFFFFF;" version="1.1" viewBox="0 0 337 369" width="337px" zoomAndPan="magnify"><defs/><g><ellipse cx="77.81" cy="16" fill="#222222" rx="10" ry="10" style="stroke:#222222;stroke-width:1.0;"/><g id="WachtenOpReset"><rect fill="#F1F1F1" height="50" rx="12.5" ry="12.5" style="stroke:#181818;stroke-width:0.5;" width="141.6113" x="7" y="87"/><line style="stroke:#181818;stroke-width:0.5;" x1="7" x2="148.6113" y1="113.2969" y2="113.2969"/><text fill="#000000" font-family="sans-serif" font-size="14" lengthAdjust="spacing" textLength="121.6113" x="17" y="104.9951">WachtenOpReset</text></g><g id="Resetten"><rect fill="#F1F1F1" height="50" rx="12.5" ry="12.5" style="stroke:#181818;stroke-width:0.5;" width="82.7129" x="36.45" y="214"/><line style="stroke:#181818;stroke-width:0.5;" x1="36.45" x2="119.1629" y1="240.2969" y2="240.2969"/><text fill="#000000" font-family="sans-serif" font-size="14" lengthAdjust="spacing" textLength="62.7129" x="46.45" y="231.9951">Resetten</text></g><ellipse cx="77.81" cy="352" fill="none" rx="11" ry="11" style="stroke:#222222;stroke-width:1.0;"/><ellipse cx="77.81" cy="352" fill="#222222" rx="6" ry="6" style="stroke:#222222;stroke-width:1.0;"/><!--link *start* to WachtenOpReset--><g id="link_*start*_WachtenOpReset"><path d="M77.81,26.36 C77.81,40.29 77.81,60.95 77.81,80.65 " fill="none" id="*start*-to-WachtenOpReset" style="stroke:#181818;stroke-width:1.0;"/><polygon fill="#181818" points="77.81,86.65,81.81,77.65,77.81,81.65,73.81,77.65,77.81,86.65" style="stroke:#181818;stroke-width:1.0;"/></g><!--link WachtenOpReset to Resetten--><g id="link_WachtenOpReset_Resetten"><path d="M77.81,137.4 C77.81,159.42 77.81,185.66 77.81,207.66 " fill="none" id="WachtenOpReset-to-Resetten" style="stroke:#181818;stroke-width:1.0;"/><polygon fill="#181818" points="77.81,213.66,81.81,204.66,77.81,208.66,73.81,204.66,77.81,213.66" style="stroke:#181818;stroke-width:1.0;"/><text fill="#000000" font-family="sans-serif" font-size="13" lengthAdjust="spacing" textLength="171.4629" x="78.81" y="180.0669">GVL.Reset_Knop == TRUE</text></g><!--link Resetten to *end*--><g id="link_Resetten_*end*"><path d="M77.81,264.36 C77.81,288.23 77.81,317.46 77.81,334.71 " fill="none" id="Resetten-to-*end*" style="stroke:#181818;stroke-width:1.0;"/><polygon fill="#181818" points="77.81,340.71,81.81,331.71,77.81,335.71,73.81,331.71,77.81,340.71" style="stroke:#181818;stroke-width:1.0;"/><text fill="#000000" font-family="sans-serif" font-size="13" lengthAdjust="spacing" textLength="251.1133" x="78.81" y="307.0669">Reset alle variabelen naar beginstatus</text></g><!--SRC=[YzQALT3LjLC8JqpEA4dDyoy8IYrEBU52vO9LW5b0CGKh1VSm7pqmDzuxBxz0mTPM8IGer9KBhWAaF1fei1L4aq9YJawgGbbYKMPYKceEK3ulCR588IarFJElk2InfBGO0000]--></g></svg>