<svg xmlns="http://www.w3.org/2000/svg" xmlns:xlink="http://www.w3.org/1999/xlink" contentStyleType="text/css" height="640px" preserveAspectRatio="none" style="width:2505px;height:640px;background:#FFFFFF;" version="1.1" viewBox="0 0 2505 640" width="2505px" zoomAndPan="magnify"><defs/><g><ellipse cx="745.32" cy="16" fill="#222222" rx="10" ry="10" style="stroke:#222222;stroke-width:1.0;"/><g id="WachtenOpStart"><rect fill="#F1F1F1" height="50" rx="12.5" ry="12.5" style="stroke:#181818;stroke-width:0.5;" width="136.0742" x="281.28" y="87"/><line style="stroke:#181818;stroke-width:0.5;" x1="281.28" x2="417.3542" y1="113.2969" y2="113.2969"/><text fill="#000000" font-family="sans-serif" font-size="14" lengthAdjust="spacing" textLength="116.0742" x="291.28" y="104.9951">WachtenOpStart</text></g><g id="Starten"><rect fill="#F1F1F1" height="50" rx="12.5" ry="12.5" style="stroke:#181818;stroke-width:0.5;" width="71.6865" x="686.47" y="214"/><line style="stroke:#181818;stroke-width:0.5;" x1="686.47" x2="758.1565" y1="240.2969" y2="240.2969"/><text fill="#000000" font-family="sans-serif" font-size="14" lengthAdjust="spacing" textLength="51.6865" x="696.47" y="231.9951">Starten</text></g><g id="Player1Start"><rect fill="#F1F1F1" height="50" rx="12.5" ry="12.5" style="stroke:#181818;stroke-width:0.5;" width="106.6729" x="668.98" y="374"/><line style="stroke:#181818;stroke-width:0.5;" x1="668.98" x2="775.6529" y1="400.2969" y2="400.2969"/><text fill="#000000" font-family="sans-serif" font-size="14" lengthAdjust="spacing" textLength="86.6729" x="678.98" y="391.9951">Player1Start</text></g><g id="Player2Start"><rect fill="#F1F1F1" height="50" rx="12.5" ry="12.5" style="stroke:#181818;stroke-width:0.5;" width="106.6729" x="845.98" y="374"/><line style="stroke:#181818;stroke-width:0.5;" x1="845.98" x2="952.6529" y1="400.2969" y2="400.2969"/><text fill="#000000" font-family="sans-serif" font-size="14" lengthAdjust="spacing" textLength="86.6729" x="855.98" y="391.9951">Player2Start</text></g><g id="Bezig"><rect fill="#F1F1F1" height="50" rx="12.5" ry="12.5" style="stroke:#181818;stroke-width:0.5;" width="58.3428" x="880.14" y="501"/><line style="stroke:#181818;stroke-width:0.5;" x1="880.14" x2="938.4828" y1="527.2969" y2="527.2969"/><text fill="#000000" font-family="sans-serif" font-size="14" lengthAdjust="spacing" textLength="38.3428" x="890.14" y="518.9951">Bezig</text></g><ellipse cx="1296.32" cy="623" fill="none" rx="11" ry="11" style="stroke:#222222;stroke-width:1.0;"/><ellipse cx="1296.32" cy="623" fill="#222222" rx="6" ry="6" style="stroke:#222222;stroke-width:1.0;"/><g id="WachtenOpZet"><rect fill="#F1F1F1" height="50" rx="12.5" ry="12.5" style="stroke:#181818;stroke-width:0.5;" width="125.5674" x="566.53" y="87"/><line style="stroke:#181818;stroke-width:0.5;" x1="566.53" x2="692.0974" y1="113.2969" y2="113.2969"/><text fill="#000000" font-family="sans-serif" font-size="14" lengthAdjust="spacing" textLength="105.5674" x="576.53" y="104.9951">WachtenOpZet</text></g><g id="ZetGedaan"><rect fill="#F1F1F1" height="50" rx="12.5" ry="12.5" style="stroke:#181818;stroke-width:0.5;" width="98.0732" x="998.28" y="214"/><line style="stroke:#181818;stroke-width:0.5;" x1="998.28" x2="1096.3532" y1="240.2969" y2="240.2969"/><text fill="#000000" font-family="sans-serif" font-size="14" lengthAdjust="spacing" textLength="78.0732" x="1008.28" y="231.9951">ZetGedaan</text></g><g id="BeurtWissel"><rect fill="#F1F1F1" height="50" rx="12.5" ry="12.5" style="stroke:#181818;stroke-width:0.5;" width="103.1592" x="1038.74" y="374"/><line style="stroke:#181818;stroke-width:0.5;" x1="1038.74" x2="1141.8992" y1="400.2969" y2="400.2969"/><text fill="#000000" font-family="sans-serif" font-size="14" lengthAdjust="spacing" textLength="83.1592" x="1048.74" y="391.9951">BeurtWissel</text></g><g id="WinCheck"><rect fill="#F1F1F1" height="50" rx="12.5" ry="12.5" style="stroke:#181818;stroke-width:0.5;" width="89.6719" x="1110.48" y="501"/><line style="stroke:#181818;stroke-width:0.5;" x1="1110.48" x2="1200.1519" y1="527.2969" y2="527.2969"/><text fill="#000000" font-family="sans-serif" font-size="14" lengthAdjust="spacing" textLength="69.6719" x="1120.48" y="518.9951">WinCheck</text></g><g id="ControleerWinnaar"><rect fill="#F1F1F1" height="50" rx="12.5" ry="12.5" style="stroke:#181818;stroke-width:0.5;" width="152.2891" x="1383.17" y="87"/><line style="stroke:#181818;stroke-width:0.5;" x1="1383.17" x2="1535.4591" y1="113.2969" y2="113.2969"/><text fill="#000000" font-family="sans-serif" font-size="14" lengthAdjust="spacing" textLength="132.2891" x="1393.17" y="104.9951">ControleerWinnaar</text></g><g id="Speler1Gewonnen"><rect fill="#F1F1F1" height="50" rx="12.5" ry="12.5" style="stroke:#181818;stroke-width:0.5;" width="148.2627" x="1177.18" y="214"/><line style="stroke:#181818;stroke-width:0.5;" x1="1177.18" x2="1325.4427" y1="240.2969" y2="240.2969"/><text fill="#000000" font-family="sans-serif" font-size="14" lengthAdjust="spacing" textLength="128.2627" x="1187.18" y="231.9951">Speler1Gewonnen</text></g><g id="Speler2Gewonnen"><rect fill="#F1F1F1" height="50" rx="12.5" ry="12.5" style="stroke:#181818;stroke-width:0.5;" width="148.2627" x="1526.18" y="214"/><line style="stroke:#181818;stroke-width:0.5;" x1="1526.18" x2="1674.4427" y1="240.2969" y2="240.2969"/><text fill="#000000" font-family="sans-serif" font-size="14" lengthAdjust="spacing" textLength="128.2627" x="1536.18" y="231.9951">Speler2Gewonnen</text></g><g id="Gelijkspel"><rect fill="#F1F1F1" height="50" rx="12.5" ry="12.5" style="stroke:#181818;stroke-width:0.5;" width="87.9219" x="1893.35" y="214"/><line style="stroke:#181818;stroke-width:0.5;" x1="1893.35" x2="1981.2719" y1="240.2969" y2="240.2969"/><text fill="#000000" font-family="sans-serif" font-size="14" lengthAdjust="spacing" textLength="67.9219" x="1903.35" y="231.9951">Gelijkspel</text></g><g id="EindeSpel"><rect fill="#F1F1F1" height="50" rx="12.5" ry="12.5" style="stroke:#181818;stroke-width:0.5;" width="89.3848" x="1284.62" y="374"/><line style="stroke:#181818;stroke-width:0.5;" x1="1284.62" x2="1374.0048" y1="400.2969" y2="400.2969"/><text fill="#000000" font-family="sans-serif" font-size="14" lengthAdjust="spacing" textLength="69.3848" x="1294.62" y="391.9951">EindeSpel</text></g><g id="WachtenOpReset"><rect fill="#F1F1F1" height="50" rx="12.5" ry="12.5" style="stroke:#181818;stroke-width:0.5;" width="141.6113" x="2061.51" y="87"/><line style="stroke:#181818;stroke-width:0.5;" x1="2061.51" x2="2203.1213" y1="113.2969" y2="113.2969"/><text fill="#000000" font-family="sans-serif" font-size="14" lengthAdjust="spacing" textLength="121.6113" x="2071.51" y="104.9951">WachtenOpReset</text></g><g id="Resetten"><rect fill="#F1F1F1" height="50" rx="12.5" ry="12.5" style="stroke:#181818;stroke-width:0.5;" width="82.7129" x="2146.96" y="294"/><line style="stroke:#181818;stroke-width:0.5;" x1="2146.96" x2="2229.6729" y1="320.2969" y2="320.2969"/><text fill="#000000" font-family="sans-serif" font-size="14" lengthAdjust="spacing" textLength="62.7129" x="2156.96" y="311.9951">Resetten</text></g><!--link *start* to WachtenOpStart--><g id="link_*start*_WachtenOpStart"><path d="M735.53,19.32 C692.35,29.57 522.5577,69.8739 423.6677,93.3539 " fill="none" id="*start*-to-WachtenOpStart" style="stroke:#181818;stroke-width:1.0;"/><polygon fill="#181818" points="417.83,94.74,427.5106,96.5527,422.6948,93.5849,425.6625,88.7691,417.83,94.74" style="stroke:#181818;stroke-width:1.0;"/></g><!--link WachtenOpStart to Starten--><g id="link_WachtenOpStart_Starten"><path d="M281.17,117.9 C180.14,126.46 6,146.86 40.32,184 C84.4,231.71 545.1101,237.2824 680.0001,237.9024 " fill="none" id="WachtenOpStart-to-Starten" style="stroke:#181818;stroke-width:1.0;"/><polygon fill="#181818" points="686,237.93,677.0185,233.8887,681.0001,237.907,676.9817,241.8886,686,237.93" style="stroke:#181818;stroke-width:1.0;"/><text fill="#000000" font-family="sans-serif" font-size="13" lengthAdjust="spacing" textLength="352.1108" x="41.32" y="180.0669">GVL.game_status == 0 &amp;&amp; GVL.Begin_Knop == TRUE</text></g><!--link Starten to Player1Start--><g id="link_Starten_Player1Start"><path d="M722.32,264.34 C722.32,294.03 722.32,337.93 722.32,367.63 " fill="none" id="Starten-to-Player1Start" style="stroke:#181818;stroke-width:1.0;"/><polygon fill="#181818" points="722.32,373.63,726.32,364.63,722.32,368.63,718.32,364.63,722.32,373.63" style="stroke:#181818;stroke-width:1.0;"/><text fill="#000000" font-family="sans-serif" font-size="13" lengthAdjust="spacing" textLength="105.8218" x="723.32" y="323.5669">tempRand == 0</text></g><!--link Starten to Player2Start--><g id="link_Starten_Player2Start"><path d="M758.45,250.72 C782.87,259.37 814.68,273.49 837.32,294 C861.93,316.3 877.3808,345.1905 887.4408,368.2505 " fill="none" id="Starten-to-Player2Start" style="stroke:#181818;stroke-width:1.0;"/><polygon fill="#181818" points="889.84,373.75,889.9076,363.9014,887.8407,369.1671,882.575,367.1002,889.84,373.75" style="stroke:#181818;stroke-width:1.0;"/><text fill="#000000" font-family="sans-serif" font-size="13" lengthAdjust="spacing" textLength="105.8218" x="875.85" y="323.5669">tempRand == 1</text></g><!--link Player1Start to Bezig--><g id="link_Player1Start_Bezig"><path d="M725.74,424.31 C729.08,439.57 735.61,458.64 748.32,471 C784.45,506.16 838.1928,517.7248 873.8428,522.0048 " fill="none" id="Player1Start-to-Bezig" style="stroke:#181818;stroke-width:1.0;"/><polygon fill="#181818" points="879.8,522.72,871.341,517.6757,874.8356,522.124,870.3874,525.6187,879.8,522.72" style="stroke:#181818;stroke-width:1.0;"/><text fill="#000000" font-family="sans-serif" font-size="13" lengthAdjust="spacing" textLength="145.4756" x="749.32" y="467.0669">GVL.game_status := 1</text></g><!--link Player2Start to Bezig--><g id="link_Player2Start_Bezig"><path d="M901.27,424.4 C903.03,446.42 905.1315,472.6791 906.8915,494.6791 " fill="none" id="Player2Start-to-Bezig" style="stroke:#181818;stroke-width:1.0;"/><polygon fill="#181818" points="907.37,500.66,910.6396,491.3697,906.9713,495.6759,902.665,492.0076,907.37,500.66" style="stroke:#181818;stroke-width:1.0;"/><text fill="#000000" font-family="sans-serif" font-size="13" lengthAdjust="spacing" textLength="145.4756" x="905.91" y="467.0669">GVL.game_status := 1</text></g><!--link Bezig to *end*--><g id="link_Bezig_*end*"><path d="M938.72,534.22 C1018.27,553.75 1229.313,605.5495 1279.863,617.9595 " fill="none" id="Bezig-to-*end*" style="stroke:#181818;stroke-width:1.0;"/><polygon fill="#181818" points="1285.69,619.39,1277.9032,613.3596,1280.8342,618.1979,1275.9959,621.1289,1285.69,619.39" style="stroke:#181818;stroke-width:1.0;"/></g><!--link *start* to WachtenOpZet--><g id="link_*start*_WachtenOpZet"><path d="M737.7,23.17 C722.08,35.83 690.3014,61.5823 663.9814,82.9123 " fill="none" id="*start*-to-WachtenOpZet" style="stroke:#181818;stroke-width:1.0;"/><polygon fill="#181818" points="659.32,86.69,668.8306,84.1311,663.2045,83.5419,663.7937,77.9158,659.32,86.69" style="stroke:#181818;stroke-width:1.0;"/></g><!--link WachtenOpZet to ZetGedaan--><g id="link_WachtenOpZet_ZetGedaan"><path d="M566.16,118.47 C503.01,126.27 420.09,144.32 456.32,184 C457.46,185.25 849.8638,220.3766 991.8238,233.0466 " fill="none" id="WachtenOpZet-to-ZetGedaan" style="stroke:#181818;stroke-width:1.0;"/><polygon fill="#181818" points="997.8,233.58,989.1912,228.7958,992.8198,233.1355,988.48,236.7641,997.8,233.58" style="stroke:#181818;stroke-width:1.0;"/><text fill="#000000" font-family="sans-serif" font-size="13" lengthAdjust="spacing" textLength="767.895" x="457.32" y="180.0669">GVL.game_status == 1 &amp;&amp; GVL.Rechthoek_1 t/m 9 == TRUE &amp;&amp; NOT (GVL.Driehoek_1 t/m 9 OR GVL.Rondje_1 t/m 9)</text></g><!--link ZetGedaan to BeurtWissel--><g id="link_ZetGedaan_BeurtWissel"><path d="M1053.94,264.34 C1062.02,294.03 1074.0249,338.1404 1082.1049,367.8404 " fill="none" id="ZetGedaan-to-BeurtWissel" style="stroke:#181818;stroke-width:1.0;"/><polygon fill="#181818" points="1083.68,373.63,1085.1771,363.8956,1082.3674,368.8054,1077.4577,365.9957,1083.68,373.63" style="stroke:#181818;stroke-width:1.0;"/><text fill="#000000" font-family="sans-serif" font-size="13" lengthAdjust="spacing" textLength="135.167" x="1076.18" y="323.5669">zetGedaan == TRUE</text></g><!--link BeurtWissel to WinCheck--><g id="link_BeurtWissel_WinCheck"><path d="M1103,424.4 C1114.46,446.42 1128.4519,473.3367 1139.8919,495.3367 " fill="none" id="BeurtWissel-to-WinCheck" style="stroke:#181818;stroke-width:1.0;"/><polygon fill="#181818" points="1142.66,500.66,1142.0567,490.8296,1140.3532,496.2239,1134.959,494.5205,1142.66,500.66" style="stroke:#181818;stroke-width:1.0;"/><text fill="#000000" font-family="sans-serif" font-size="13" lengthAdjust="spacing" textLength="145.4756" x="1127.71" y="467.0669">GVL.game_status := 2</text></g><!--link WinCheck to *end*--><g id="link_WinCheck_*end*"><path d="M1191.63,551.46 C1223.78,573.13 1263.464,599.8675 1282.344,612.5875 " fill="none" id="WinCheck-to-*end*" style="stroke:#181818;stroke-width:1.0;"/><polygon fill="#181818" points="1287.32,615.94,1282.091,607.5939,1283.1733,613.1463,1277.621,614.2286,1287.32,615.94" style="stroke:#181818;stroke-width:1.0;"/></g><!--link *start* to ControleerWinnaar--><g id="link_*start*_ControleerWinnaar"><path d="M755.41,18.33 C823.21,27.25 1208.7513,78.0169 1376.7913,100.1369 " fill="none" id="*start*-to-ControleerWinnaar" style="stroke:#181818;stroke-width:1.0;"/><polygon fill="#181818" points="1382.74,100.92,1374.339,95.7796,1377.7828,100.2675,1373.2949,103.7112,1382.74,100.92" style="stroke:#181818;stroke-width:1.0;"/></g><!--link ControleerWinnaar to Speler1Gewonnen--><g id="link_ControleerWinnaar_Speler1Gewonnen"><path d="M1382.75,121.75 C1326.57,129.92 1257.09,144.33 1239.32,167 C1229.06,180.08 1230.504,193.1563 1236.364,208.0563 " fill="none" id="ControleerWinnaar-to-Speler1Gewonnen" style="stroke:#181818;stroke-width:1.0;"/><polygon fill="#181818" points="1238.56,213.64,1238.9885,203.8005,1236.73,208.9869,1231.5435,206.7285,1238.56,213.64" style="stroke:#181818;stroke-width:1.0;"/><text fill="#000000" font-family="sans-serif" font-size="13" lengthAdjust="spacing" textLength="385.1758" x="1240.32" y="180.0669">GVL.Driehoek_1 AND GVL.Driehoek_2 AND GVL.Driehoek_3</text></g><!--link ControleerWinnaar to Speler2Gewonnen--><g id="link_ControleerWinnaar_Speler2Gewonnen"><path d="M1535.83,116.53 C1571.79,122.52 1611.66,136.3 1634.32,167 C1644.87,181.3 1639.6537,194.6753 1628.3037,209.0153 " fill="none" id="ControleerWinnaar-to-Speler2Gewonnen" style="stroke:#181818;stroke-width:1.0;"/><polygon fill="#181818" points="1624.58,213.72,1633.302,209.1455,1627.6831,209.7994,1627.0291,204.1805,1624.58,213.72" style="stroke:#181818;stroke-width:1.0;"/><text fill="#000000" font-family="sans-serif" font-size="13" lengthAdjust="spacing" textLength="344.3857" x="1640.02" y="180.0669">GVL.Rondje_1 AND GVL.Rondje_2 AND GVL.Rondje_3</text></g><!--link ControleerWinnaar to Gelijkspel--><g id="link_ControleerWinnaar_Gelijkspel"><path d="M1535.76,115.17 C1676.08,119.95 1963.22,133.71 1993.32,167 C2006.79,181.91 1997.4589,195.8915 1980.0889,209.9115 " fill="none" id="ControleerWinnaar-to-Gelijkspel" style="stroke:#181818;stroke-width:1.0;"/><polygon fill="#181818" points="1975.42,213.68,1984.9357,211.1399,1979.3108,210.5396,1979.9111,204.9147,1975.42,213.68" style="stroke:#181818;stroke-width:1.0;"/><text fill="#000000" font-family="sans-serif" font-size="13" lengthAdjust="spacing" textLength="309.0229" x="1999.7" y="180.0669">(GVL.Driehoek_1 t/m 9 OR GVL.Rondje_1 t/m 9)</text></g><!--link Speler1Gewonnen to EindeSpel--><g id="link_Speler1Gewonnen_EindeSpel"><path d="M1263.33,264.34 C1277.99,294.03 1299.9628,338.5505 1314.6328,368.2505 " fill="none" id="Speler1Gewonnen-to-EindeSpel" style="stroke:#181818;stroke-width:1.0;"/><polygon fill="#181818" points="1317.29,373.63,1316.8906,363.7892,1315.0757,369.147,1309.7179,367.3321,1317.29,373.63" style="stroke:#181818;stroke-width:1.0;"/><text fill="#000000" font-family="sans-serif" font-size="13" lengthAdjust="spacing" textLength="114.1499" x="1302.86" y="323.5669">GVL.winnaar := 1</text></g><!--link Speler2Gewonnen to EindeSpel--><g id="link_Speler2Gewonnen_EindeSpel"><path d="M1560.44,264.31 C1525.3,285.61 1472.65,317.26 1426.32,344 C1409.29,353.83 1395.6781,361.4818 1379.1481,370.6418 " fill="none" id="Speler2Gewonnen-to-EindeSpel" style="stroke:#181818;stroke-width:1.0;"/><polygon fill="#181818" points="1373.9,373.55,1383.7109,372.6864,1378.2734,371.1265,1379.8333,365.689,1373.9,373.55" style="stroke:#181818;stroke-width:1.0;"/><text fill="#000000" font-family="sans-serif" font-size="13" lengthAdjust="spacing" textLength="114.1499" x="1508.65" y="323.5669">GVL.winnaar := 2</text></g><!--link Gelijkspel to EindeSpel--><g id="link_Gelijkspel_EindeSpel"><path d="M1893.1,257.38 C1834.17,280 1726.26,319.53 1631.32,344 C1541.32,367.2 1439.6328,383.0336 1380.2328,391.2936 " fill="none" id="Gelijkspel-to-EindeSpel" style="stroke:#181818;stroke-width:1.0;"/><polygon fill="#181818" points="1374.29,392.12,1383.7552,394.8423,1379.2423,391.4313,1382.6533,386.9185,1374.29,392.12" style="stroke:#181818;stroke-width:1.0;"/><text fill="#000000" font-family="sans-serif" font-size="13" lengthAdjust="spacing" textLength="151.6519" x="1792.25" y="323.5669">GVL.Gelijkspel := TRUE</text></g><!--link EindeSpel to *end*--><g id="link_EindeSpel_*end*"><path d="M1325.72,424.18 C1318.57,472.28 1303.7133,572.2654 1298.7333,605.7254 " fill="none" id="EindeSpel-to-*end*" style="stroke:#181818;stroke-width:1.0;"/><polygon fill="#181818" points="1297.85,611.66,1303.1313,603.3469,1298.5861,606.7145,1295.2185,602.1692,1297.85,611.66" style="stroke:#181818;stroke-width:1.0;"/></g><!--link *start* to WachtenOpReset--><g id="link_*start*_WachtenOpReset"><path d="M755.29,17.68 C862,24.91 1787.8937,87.6542 2055.0337,105.7642 " fill="none" id="*start*-to-WachtenOpReset" style="stroke:#181818;stroke-width:1.0;"/><polygon fill="#181818" points="2061.02,106.17,2052.3112,101.5704,2056.0314,105.8318,2051.7701,109.5521,2061.02,106.17" style="stroke:#181818;stroke-width:1.0;"/></g><!--link WachtenOpReset to Resetten--><g id="link_WachtenOpReset_Resetten"><path d="M2203.19,124.67 C2249.25,133.87 2303.27,148.26 2317.32,167 C2353.51,215.27 2285.1528,265.139 2234.9728,293.739 " fill="none" id="WachtenOpReset-to-Resetten" style="stroke:#181818;stroke-width:1.0;"/><polygon fill="#181818" points="2229.76,296.71,2239.5598,295.7287,2234.104,294.2342,2235.5985,288.7783,2229.76,296.71" style="stroke:#181818;stroke-width:1.0;"/><text fill="#000000" font-family="sans-serif" font-size="13" lengthAdjust="spacing" textLength="171.4629" x="2326.22" y="180.0669">GVL.Reset_Knop == TRUE</text></g><!--link Resetten to *end*--><g id="link_Resetten_*end*"><path d="M2146.49,334.16 C1983.05,389.49 1398.0333,587.5664 1312.3833,616.5564 " fill="none" id="Resetten-to-*end*" style="stroke:#181818;stroke-width:1.0;"/><polygon fill="#181818" points="1306.7,618.48,1316.5073,619.3834,1311.4361,616.877,1313.9425,611.8057,1306.7,618.48" style="stroke:#181818;stroke-width:1.0;"/><text fill="#000000" font-family="sans-serif" font-size="13" lengthAdjust="spacing" textLength="251.1133" x="1791.88" y="467.0669">Reset alle variabelen naar beginstatus</text></g><!--SRC=[bLJ9Ri8m4BtxAtn2BH9javwAHAMoA8TMK0LQf2A431c1mJYHOuhArzTBTaANN9APUVCyysQSMNEEMwr7F2MhZGG-YiQI28dAfa6OB-2uZRttbvirsSCYbaGUOjpfu3lSQ1X_5zQKBvvv66dtn7yRe3HHaxmoyWN2iQnjB64V-OG7Xg86wDO17LHYqUWkdEYwfh9sZdR_YBP13PirvqW_iwf47r0GI1acgjuU18HS4CX91V919Mv2s2qSB6_t-27LIGE6emc-qgY-e502ZNoR7V9W2wdt6kMdsiOEGavf70DJLPooM3g9OjnqH7bl0wjTlHOkok9rSlH2BaN808I2SK84GcSkkpWHC3Kj3uuXvza25Jfy6lRBBlVSTVyZkLiXpsHAUHA7MtLSelM0qUqkZeoG_vf8jLlDDg0yWB4bqpd7v2IpSDKEVabmKQ6sEconz6JkACSK9dcsrpx4nSqsfa6Oh_pk6xDynpD4mg-GDfqm1lYJ24gMgasEJHjB_PEmY_OD]--></g></svg>