<svg xmlns="http://www.w3.org/2000/svg" xmlns:xlink="http://www.w3.org/1999/xlink" contentStyleType="text/css" height="607px" preserveAspectRatio="none" style="width:504px;height:607px;background:#FFFFFF;" version="1.1" viewBox="0 0 504 607" width="504px" zoomAndPan="magnify"><defs/><g><ellipse cx="143.34" cy="16" fill="#222222" rx="10" ry="10" style="stroke:#222222;stroke-width:1.0;"/><g id="WachtenOpStart"><rect fill="#F1F1F1" height="50" rx="12.5" ry="12.5" style="stroke:#181818;stroke-width:0.5;" width="136.0742" x="75.3" y="87"/><line style="stroke:#181818;stroke-width:0.5;" x1="75.3" x2="211.3742" y1="113.2969" y2="113.2969"/><text fill="#000000" font-family="sans-serif" font-size="14" lengthAdjust="spacing" textLength="116.0742" x="85.3" y="104.9951">WachtenOpStart</text></g><g id="Starten"><rect fill="#F1F1F1" height="50" rx="12.5" ry="12.5" style="stroke:#181818;stroke-width:0.5;" width="71.6865" x="107.49" y="214"/><line style="stroke:#181818;stroke-width:0.5;" x1="107.49" x2="179.1765" y1="240.2969" y2="240.2969"/><text fill="#000000" font-family="sans-serif" font-size="14" lengthAdjust="spacing" textLength="51.6865" x="117.49" y="231.9951">Starten</text></g><g id="Player1Start"><rect fill="#F1F1F1" height="50" rx="12.5" ry="12.5" style="stroke:#181818;stroke-width:0.5;" width="106.6729" x="7" y="341"/><line style="stroke:#181818;stroke-width:0.5;" x1="7" x2="113.6729" y1="367.2969" y2="367.2969"/><text fill="#000000" font-family="sans-serif" font-size="14" lengthAdjust="spacing" textLength="86.6729" x="17" y="358.9951">Player1Start</text></g><g id="Player2Start"><rect fill="#F1F1F1" height="50" rx="12.5" ry="12.5" style="stroke:#181818;stroke-width:0.5;" width="106.6729" x="171" y="341"/><line style="stroke:#181818;stroke-width:0.5;" x1="171" x2="277.6729" y1="367.2969" y2="367.2969"/><text fill="#000000" font-family="sans-serif" font-size="14" lengthAdjust="spacing" textLength="86.6729" x="181" y="358.9951">Player2Start</text></g><g id="Bezig"><rect fill="#F1F1F1" height="50" rx="12.5" ry="12.5" style="stroke:#181818;stroke-width:0.5;" width="58.3428" x="104.17" y="468"/><line style="stroke:#181818;stroke-width:0.5;" x1="104.17" x2="162.5128" y1="494.2969" y2="494.2969"/><text fill="#000000" font-family="sans-serif" font-size="14" lengthAdjust="spacing" textLength="38.3428" x="114.17" y="485.9951">Bezig</text></g><ellipse cx="133.34" cy="590" fill="none" rx="11" ry="11" style="stroke:#222222;stroke-width:1.0;"/><ellipse cx="133.34" cy="590" fill="#222222" rx="6" ry="6" style="stroke:#222222;stroke-width:1.0;"/><!--link *start* to WachtenOpStart--><g id="link_*start*_WachtenOpStart"><path d="M143.34,26.36 C143.34,40.29 143.34,60.95 143.34,80.65 " fill="none" id="*start*-to-WachtenOpStart" style="stroke:#181818;stroke-width:1.0;"/><polygon fill="#181818" points="143.34,86.65,147.34,77.65,143.34,81.65,139.34,77.65,143.34,86.65" style="stroke:#181818;stroke-width:1.0;"/></g><!--link WachtenOpStart to Starten--><g id="link_WachtenOpStart_Starten"><path d="M143.34,137.4 C143.34,159.42 143.34,185.66 143.34,207.66 " fill="none" id="WachtenOpStart-to-Starten" style="stroke:#181818;stroke-width:1.0;"/><polygon fill="#181818" points="143.34,213.66,147.34,204.66,143.34,208.66,139.34,204.66,143.34,213.66" style="stroke:#181818;stroke-width:1.0;"/><text fill="#000000" font-family="sans-serif" font-size="13" lengthAdjust="spacing" textLength="352.1108" x="144.34" y="180.0669">GVL.game_status == 0 &amp;&amp; GVL.Begin_Knop == TRUE</text></g><!--link Starten to Player1Start--><g id="link_Starten_Player1Start"><path d="M107.07,257.55 C92.63,266.44 77.33,278.63 68.34,294 C60.13,308.02 58.1886,320.2901 58.2886,334.7801 " fill="none" id="Starten-to-Player1Start" style="stroke:#181818;stroke-width:1.0;"/><polygon fill="#181818" points="58.33,340.78,62.2678,331.7526,58.2955,335.7801,54.268,331.8078,58.33,340.78" style="stroke:#181818;stroke-width:1.0;"/><text fill="#000000" font-family="sans-serif" font-size="13" lengthAdjust="spacing" textLength="105.8218" x="69.34" y="307.0669">tempRand == 0</text></g><!--link Starten to Player2Start--><g id="link_Starten_Player2Start"><path d="M162.26,264.31 C169.13,273.46 176.81,284.05 183.34,294 C193.25,309.11 200.5023,321.4672 208.2323,335.3572 " fill="none" id="Starten-to-Player2Start" style="stroke:#181818;stroke-width:1.0;"/><polygon fill="#181818" points="211.15,340.6,210.2687,330.7907,208.7186,336.231,203.2782,334.6809,211.15,340.6" style="stroke:#181818;stroke-width:1.0;"/><text fill="#000000" font-family="sans-serif" font-size="13" lengthAdjust="spacing" textLength="105.8218" x="193.92" y="307.0669">tempRand == 1</text></g><!--link Player1Start to Bezig--><g id="link_Player1Start_Bezig"><path d="M42.74,391.43 C34.8,405.66 28.9,423.57 37.34,438 C51.62,462.43 75.7965,474.737 98.4365,482.397 " fill="none" id="Player1Start-to-Bezig" style="stroke:#181818;stroke-width:1.0;"/><polygon fill="#181818" points="104.12,484.32,96.8767,477.6466,99.3837,482.7175,94.3128,485.2246,104.12,484.32" style="stroke:#181818;stroke-width:1.0;"/><text fill="#000000" font-family="sans-serif" font-size="13" lengthAdjust="spacing" textLength="145.4756" x="38.34" y="434.0669">GVL.game_status := 1</text></g><!--link Player2Start to Bezig--><g id="link_Player2Start_Bezig"><path d="M214.32,391.46 C207.93,405.7 198.87,423.61 188.34,438 C180.67,448.47 175.261,454.618 166.101,463.358 " fill="none" id="Player2Start-to-Bezig" style="stroke:#181818;stroke-width:1.0;"/><polygon fill="#181818" points="161.76,467.5,171.0328,464.1811,165.3775,464.0484,165.5102,458.3931,161.76,467.5" style="stroke:#181818;stroke-width:1.0;"/><text fill="#000000" font-family="sans-serif" font-size="13" lengthAdjust="spacing" textLength="145.4756" x="200" y="434.0669">GVL.game_status := 1</text></g><!--link Bezig to *end*--><g id="link_Bezig_*end*"><path d="M133.34,518.46 C133.34,538.04 133.34,558.49 133.34,572.8 " fill="none" id="Bezig-to-*end*" style="stroke:#181818;stroke-width:1.0;"/><polygon fill="#181818" points="133.34,578.8,137.34,569.8,133.34,573.8,129.34,569.8,133.34,578.8" style="stroke:#181818;stroke-width:1.0;"/></g><!--SRC=[YzQALT3LjLC8JqpEA4dDyoy8BaaiAk52vO9LW5cfUGfM2kvXFdhfYRcfySKbYIMbnGgsjWe62cfgO76drFJCl7ZllFm2a718KAWh5qmZo920dCJAr293YAbM2YMfkGL1YNafO2EmA3J2fj2G2yKKa6gdrAhCT2mkiqAeDY9IDKGIf2nQAnO0]--></g></svg>